<?xml version="1.0" standalone="no"?>
<!DOCTYPE svg PUBLIC "-//W3C//DTD SVG 1.1//EN" "http://www.w3.org/Graphics/SVG/1.1/DTD/svg11.dtd" >
<svg xmlns="http://www.w3.org/2000/svg" xmlns:xlink="http://www.w3.org/1999/xlink" version="1.1">
<metadata></metadata>
<defs>
<font id="gilroybold" horiz-adv-x="1075" >
<font-face units-per-em="2048" ascent="1583" descent="-465" />
<missing-glyph horiz-adv-x="512" />
<glyph horiz-adv-x="0" />
<glyph horiz-adv-x="682" />
<glyph unicode=" "  horiz-adv-x="512" />
<glyph unicode="&#x09;" horiz-adv-x="512" />
<glyph unicode="&#xa0;" horiz-adv-x="512" />
<glyph unicode="!" horiz-adv-x="548" d="M101 147.5q0 71.5 51 122.5t122.5 51t122.5 -51t51 -122.5t-51 -122.5t-122.5 -51t-122.5 51t-51 122.5zM115 1024v410h317v-410l-53 -543h-209z" />
<glyph unicode="&#x22;" horiz-adv-x="774" d="M88 1434h250l-35 -471h-180zM436 1434h250l-35 -471h-180z" />
<glyph unicode="#" horiz-adv-x="1261" d="M47 426l33 199h225l31 184h-227l32 201h228l53 321h207l-54 -321h209l54 321h209l-54 -321h221l-32 -201h-221l-31 -184h223l-33 -199h-225l-53 -324h-209l53 324h-209l-53 -324h-207l53 324h-223zM512 625h209l31 184h-209z" />
<glyph unicode="$" horiz-adv-x="1124" d="M51 297l244 141q65 -165 227 -186v354h-2l-4 2q-73 27 -117.5 48t-105.5 59q-85 54 -128.5 132.5t-49.5 199.5q0 181 116 288q123 110 291 125v178h137v-182q280 -35 394 -289l-238 -139q-50 123 -156 150v-342q199 -80 256 -121q158 -115 158 -314q0 -177 -113 -289.5 t-301 -136.5v-180h-137v178q-171 12 -294 96.5t-177 227.5zM395 1044q0 -44 29 -78t98 -69v287q-61 -12 -94 -49t-33 -91zM659 256q132 27 132 143q0 50 -31.5 85.5t-100.5 66.5v-295z" />
<glyph unicode="%" horiz-adv-x="1566" d="M92 1124q0 142 98 240q101 98 248 98q148 0 246 -98q98 -94 98 -240q0 -143 -98 -241q-102 -97 -246 -97q-146 0 -248 99q-98 98 -98 239zM238 217l933 1038l125 -69l-936 -1041zM309 1124q0 -56 35 -94q37 -37 92 -37t92 37q37 38 37 94t-37 93t-92 37t-92 -37 q-35 -37 -35 -93zM786 313q0 141 99 240q98 98 245 98q148 0 246 -98q99 -99 99 -240q0 -140 -99 -239t-246 -99q-146 0 -245 99t-99 239zM1004 313q0 -56 35.5 -93.5t90.5 -37.5t91 38t36 93q0 56 -36 93.5t-91 37.5t-90.5 -37.5t-35.5 -93.5z" />
<glyph unicode="&#x26;" horiz-adv-x="1378" d="M92 397q0 129 62 237t178 175q-70 110 -70 240q0 182 127 297q125 116 322 116q156 0 276.5 -80t179.5 -227l-241 -139q-58 172 -211 172q-74 0 -122 -43t-48 -109q0 -55 26 -101.5t91 -115.5l307 -336q44 89 69 238l238 -135q-41 -168 -125 -301l184 -203l-225 -129 l-131 141q-167 -123 -385 -123q-221 0 -363 115q-139 118 -139 311zM377 426q0 -90 61 -142.5t174 -52.5q109 0 191 52l-309 335q-5 5 -5 7q-112 -69 -112 -199z" />
<glyph unicode="'" horiz-adv-x="425" d="M88 1434h250l-35 -471h-180z" />
<glyph unicode="(" horiz-adv-x="628" d="M108 716.5q0 471.5 226 921.5h264q-226 -450 -226 -921.5t226 -921.5h-264q-226 450 -226 921.5z" />
<glyph unicode=")" horiz-adv-x="628" d="M31 -205q226 450 226 921.5t-226 921.5h264q226 -450 226 -921.5t-226 -921.5h-264z" />
<glyph unicode="*" horiz-adv-x="815" d="M109 1083v164l184 -16l-111 145l137 86l89 -172l88 172l139 -86l-113 -145l187 16v-164l-187 15l113 -144l-139 -86l-88 172l-89 -172l-137 86l111 144z" />
<glyph unicode="+" horiz-adv-x="1136" d="M109 594v248h335v336h248v-336h338v-248h-338v-338h-248v338h-335z" />
<glyph unicode="," horiz-adv-x="569" d="M100 -287l82 570h287l-154 -570h-215z" />
<glyph unicode="-" horiz-adv-x="1034" d="M133 492v253h768v-253h-768z" />
<glyph unicode="." horiz-adv-x="548" d="M101 147.5q0 71.5 51 122.5t122.5 51t122.5 -51t51 -122.5t-51 -122.5t-122.5 -51t-122.5 51t-51 122.5z" />
<glyph unicode="/" horiz-adv-x="1071" d="M68 -205l819 1843h117l-820 -1843h-116z" />
<glyph unicode="0" horiz-adv-x="1290" d="M72 717q0 336 151 540q153 205 422 205q272 0 422 -205q152 -205 152 -540t-152 -543q-150 -203 -422 -203q-269 0 -422 203q-151 207 -151 543zM354 717q0 -229 74.5 -349t216.5 -120t217.5 121t75.5 348q0 229 -75.5 350t-217.5 121t-216.5 -121t-74.5 -350z" />
<glyph unicode="1" horiz-adv-x="792" d="M23 1300l376 134h246v-1434h-283v1135l-270 -76z" />
<glyph unicode="2" horiz-adv-x="1087" d="M45 1159q66 145 192 224t281 79q196 0 334 -123q139 -121 139 -327q0 -224 -235 -459l-281 -281h539v-272h-959v211l490 504q164 173 164 286q0 84 -52.5 135.5t-134.5 51.5q-163 0 -239 -168z" />
<glyph unicode="3" horiz-adv-x="1116" d="M47 274l242 140q52 -166 250 -166q108 0 168.5 51.5t60.5 142.5q0 89 -61 142t-168 53h-62l-108 164l282 368h-561v265h901v-234l-268 -348q149 -44 238.5 -152.5t89.5 -257.5q0 -220 -150 -346q-146 -125 -362 -125q-171 0 -302 78.5t-190 224.5z" />
<glyph unicode="4" horiz-adv-x="1187" d="M43 244v262l477 928h303l-475 -928h373v340h285v-340h153v-262h-153v-244h-285v244h-678z" />
<glyph unicode="5" horiz-adv-x="1122" d="M51 279l242 141q52 -172 258 -172q108 0 168.5 51.5t60.5 142.5q0 88 -59.5 141.5t-161.5 53.5h-434l57 797h813v-265h-551l-18 -258h147q209 0 349 -125q141 -123 141 -344q0 -220 -150 -346q-146 -125 -362 -125q-177 0 -309 79t-191 229z" />
<glyph unicode="6" horiz-adv-x="1132" d="M47 471q0 161 84 289l447 674h323l-317 -465q222 -6 362 -146q139 -139 139 -352q0 -218 -145 -360q-146 -140 -375 -140t-375 140q-143 137 -143 360zM328 471q0 -105 66.5 -169t170.5 -64t172 64.5t68 168.5q0 103 -68 167t-172 64t-170.5 -63.5t-66.5 -167.5z" />
<glyph unicode="7" horiz-adv-x="1003" d="M27 1163v271h925v-240l-485 -1194h-299l471 1163h-612z" />
<glyph unicode="8" horiz-adv-x="1163" d="M68 399q0 226 196 346q-149 107 -149 297q0 198 133 310q134 110 334 110t331 -110q134 -113 134 -310q0 -189 -150 -297q199 -120 199 -346q0 -198 -138 -313t-376 -115q-239 0 -376.5 115t-137.5 313zM348 436q0 -92 64 -145t170 -53t169.5 52.5t63.5 145.5 q0 91 -64 144t-169 53q-106 0 -170 -53t-64 -144zM397 1028q0 -79 52 -125q51 -45 133 -45t133 45t51 125q0 78 -51 123t-133 45t-133 -45q-52 -46 -52 -123z" />
<glyph unicode="9" horiz-adv-x="1132" d="M47 965q0 221 143 358q145 139 375 139t375 -139t145 -358q0 -164 -86 -291h2l-446 -674h-324l320 467q-224 3 -365 141q-139 139 -139 357zM328 965q0 -104 67.5 -169t169.5 -65q105 0 172.5 64.5t67.5 169.5q0 104 -67 167.5t-173 63.5q-101 0 -169 -64t-68 -167z" />
<glyph unicode=":" horiz-adv-x="548" d="M101 147.5q0 71.5 51 122.5t122.5 51t122.5 -51t51 -122.5t-51 -122.5t-122.5 -51t-122.5 51t-51 122.5zM101 881q0 72 51 123t122.5 51t122.5 -51t51 -123t-51 -123t-122.5 -51t-122.5 51t-51 123z" />
<glyph unicode=";" horiz-adv-x="571" d="M100 -287l82 570h287l-154 -570h-215zM123 881q0 72 51 123t123 51t123 -51t51 -123t-51 -123t-123 -51t-123 51t-51 123z" />
<glyph unicode="&#x3c;" horiz-adv-x="1081" d="M92 600v236l897 389v-275l-596 -233l596 -232v-274z" />
<glyph unicode="=" d="M92 381v248h891v-248h-891zM92 805v248h891v-248h-891z" />
<glyph unicode="&#x3e;" horiz-adv-x="1081" d="M92 211v274l596 232l-596 233v275l897 -389v-236z" />
<glyph unicode="?" horiz-adv-x="1132" d="M72 1145q61 150 194 233.5t301 83.5q187 0 322 -108q137 -107 137 -295q0 -72 -25.5 -136.5t-63.5 -109.5t-83 -90.5t-83 -80.5t-63.5 -77.5t-25.5 -83.5h-283q0 84 50.5 165.5t121.5 137.5q172 139 172 254q0 72 -49 111t-137 39q-173 0 -244 -182zM367 147.5 q0 71.5 51 122.5t123 51t123 -51t51 -122.5t-51 -122.5t-123 -51t-123 51t-51 122.5z" />
<glyph unicode="@" horiz-adv-x="1595" d="M68 512q0 308 213 524q214 217 532 217q219 0 385 -106q163 -101 247.5 -258t84.5 -336q0 -209 -90.5 -326.5t-235.5 -117.5q-206 0 -270 161q-76 -94 -203 -94q-132 0 -217 94q-84 96 -84 242q0 144 84 240q87 96 217 96q111 0 187 -76v53h219v-473q0 -149 118 -149 q90 0 143.5 90.5t53.5 259.5q0 267 -184 448q-186 183 -455 183q-282 0 -477 -195q-193 -193 -193 -477q0 -289 201 -481q200 -191 506 -191q198 0 332 51v-73q-139 -47 -332 -47q-335 0 -559 211q-223 207 -223 530zM653 512q0 -62 36.5 -100.5t96.5 -38.5q57 0 93 39 t36 100q0 63 -36 101t-93 38q-60 0 -96.5 -38t-36.5 -101z" />
<glyph unicode="A" horiz-adv-x="1368" d="M6 0l502 1434h350l504 -1434h-307l-86 258h-572l-86 -258h-305zM487 522h394l-197 586z" />
<glyph unicode="B" horiz-adv-x="1239" d="M133 0v1434h565q183 0 310 -115t127 -289q0 -178 -136 -287q189 -109 189 -327q0 -182 -129 -299t-318 -117h-608zM416 264h325q72 0 119 48t47 122q0 72 -47 120t-119 48h-325v-338zM416 854h282q66 0 110 45t44 113t-43.5 112.5t-110.5 44.5h-282v-315z" />
<glyph unicode="C" horiz-adv-x="1486" d="M68 717q0 319 211 530q212 215 534 215q194 0 359 -91t258 -247l-244 -141q-54 97 -152 151t-221 54q-210 0 -338 -131q-127 -133 -127 -340q0 -205 127 -338q128 -131 338 -131q123 0 222.5 54.5t150.5 148.5l244 -142q-93 -156 -257.5 -247t-359.5 -91q-322 0 -534 215 q-211 214 -211 531z" />
<glyph unicode="D" horiz-adv-x="1460" d="M133 0v1434h569q294 0 492 -207q199 -205 199 -510t-199 -510q-198 -207 -492 -207h-569zM416 270h286q187 0 304 123q116 125 116 324t-116 321q-116 125 -304 125h-286v-893z" />
<glyph unicode="E" horiz-adv-x="1085" d="M133 0v1434h877v-271h-594v-305h542v-266h-542v-322h604v-270h-887z" />
<glyph unicode="F" horiz-adv-x="1062" d="M133 0v1434h856v-271h-573v-340h557v-270h-557v-553h-283z" />
<glyph unicode="G" horiz-adv-x="1607" d="M68 715q0 312 215 530q217 217 536 217q199 0 365.5 -90t259.5 -244l-242 -139q-52 89 -156 144t-229 55q-206 0 -338 -135q-131 -131 -131 -338q0 -203 133 -336q134 -131 357 -131q163 0 270.5 71.5t146.5 200.5h-434v250h719v-111q0 -306 -197 -497t-507 -191 q-333 0 -551 215q-217 217 -217 529z" />
<glyph unicode="H" horiz-adv-x="1361" d="M133 0v1434h283v-570h532v570h281v-1434h-281v594h-532v-594h-283z" />
<glyph unicode="I" horiz-adv-x="548" d="M133 0v1434h283v-1434h-283z" />
<glyph unicode="J" horiz-adv-x="1165" d="M68 244l243 139q67 -135 230 -135q110 0 166.5 52t56.5 146v988h280v-988q0 -224 -141 -350q-140 -125 -362 -125q-338 0 -473 273z" />
<glyph unicode="K" horiz-adv-x="1259" d="M133 0v1434h283v-633l491 633h326l-531 -697l551 -737h-325l-512 672v-672h-283z" />
<glyph unicode="L" horiz-adv-x="989" d="M133 0v1434h283v-1164h547v-270h-830z" />
<glyph unicode="M" horiz-adv-x="1669" d="M133 0v1434h291l412 -678l409 678h291v-1434h-281v930l-403 -666h-33l-403 664v-928h-283z" />
<glyph unicode="N" horiz-adv-x="1378" d="M133 0v1434h215l615 -875v875h282v-1434h-215l-614 877v-877h-283z" />
<glyph unicode="O" horiz-adv-x="1622" d="M68 717q0 313 215 528q217 217 528 217t528 -217q217 -214 217 -528t-217 -531q-218 -215 -528 -215t-528 215q-215 218 -215 531zM348 717q0 -205 133 -338q131 -131 330 -131t330 131q133 133 133 338t-133 338t-330 133t-330 -133t-133 -338z" />
<glyph unicode="P" horiz-adv-x="1208" d="M133 0v1434h535q205 0 348 -140q141 -138 141 -342t-141 -342q-142 -139 -348 -139h-252v-471h-283zM416 735h252q90 0 149.5 62t59.5 155q0 94 -59 155.5t-150 61.5h-252v-434z" />
<glyph unicode="Q" horiz-adv-x="1632" d="M68 717q0 314 217 528q217 217 526 217t526 -217q219 -216 219 -528q0 -278 -176 -484l148 -153l-201 -178l-156 161q-167 -92 -360 -92q-308 0 -526 215q-217 217 -217 531zM348 717q0 -203 133 -336t330 -133q83 0 160 26l-236 246l201 178l252 -262q86 124 86 281 q0 205 -133 338t-330 133t-330 -133t-133 -338z" />
<glyph unicode="R" horiz-adv-x="1257" d="M133 0v1434h574q197 0 337 -140t140 -336q0 -133 -76 -246.5t-201 -170.5l318 -541h-305l-289 498h-215v-498h-283zM416 745h291q80 0 137 62.5t57 150.5q0 87 -57 149t-137 62h-291v-424z" />
<glyph unicode="S" horiz-adv-x="1193" d="M59 326l242 141q83 -219 330 -219q114 0 171.5 41t57.5 110q0 77 -67 117q-66 42 -242 92q-103 31 -167.5 59.5t-129.5 73.5q-135 101 -135 295q0 197 137 310q137 116 334 116q172 0 305 -84t207 -237l-238 -137q-85 184 -274 184q-87 0 -138 -40t-51 -104 q0 -66 56 -110q59 -41 217 -90l98 -33q18 -5 92 -35q59 -21 90 -43q39 -25 78.5 -59.5t57.5 -67.5q53 -84 53 -203q0 -196 -146 -315q-144 -117 -374 -117q-211 0 -357 94t-207 261z" />
<glyph unicode="T" horiz-adv-x="1105" d="M27 1163v271h1054v-271h-387v-1163h-282v1163h-385z" />
<glyph unicode="U" horiz-adv-x="1337" d="M121 469v965h280v-942q0 -116 67 -180t200 -64t199.5 64t66.5 180v942h283v-965q0 -227 -154 -363q-153 -135 -395 -135q-241 0 -394 135t-153 363z" />
<glyph unicode="V" horiz-adv-x="1325" d="M6 1434h307l351 -1102l348 1102h309l-483 -1434h-351z" />
<glyph unicode="W" horiz-adv-x="2045" d="M31 1434h297l274 -1063l299 1063h242l301 -1063l274 1063h297l-401 -1434h-322l-270 946l-268 -946h-322z" />
<glyph unicode="X" horiz-adv-x="1249" d="M27 0l438 735l-416 699h320l256 -430l256 430h319l-416 -697l441 -737h-322l-278 467l-279 -467h-319z" />
<glyph unicode="Y" horiz-adv-x="1271" d="M6 1434h320l311 -598l311 598h320l-492 -875v-559h-280v559z" />
<glyph unicode="Z" horiz-adv-x="1095" d="M74 0v225l596 938h-582v271h942v-224l-596 -940h608v-270h-968z" />
<glyph unicode="[" horiz-adv-x="634" d="M109 -205v1843h485v-254h-221v-1335h221v-254h-485z" />
<glyph unicode="\" horiz-adv-x="1071" d="M68 1638h116l820 -1843h-117z" />
<glyph unicode="]" horiz-adv-x="634" d="M41 49h221v1335h-221v254h485v-1843h-485v254z" />
<glyph unicode="^" horiz-adv-x="1146" d="M82 758l391 676h201l391 -676h-285l-207 372l-206 -372h-285z" />
<glyph unicode="_" horiz-adv-x="1064" d="M68 -96h931v-254h-931v254z" />
<glyph unicode="`" horiz-adv-x="563" d="M41 1434h317l164 -281h-254z" />
<glyph unicode="a" horiz-adv-x="1282" d="M68 512q0 226 145 383q149 158 352 158q214 0 334 -150v121h264v-1024h-264v121q-120 -150 -334 -150q-205 0 -352 156q-145 157 -145 385zM332 512q0 -126 80 -209q80 -80 202 -80q123 0 203 80q82 82 82 209q0 128 -82 207q-79 82 -203 82q-123 0 -202 -82 q-80 -80 -80 -207z" />
<glyph unicode="b" horiz-adv-x="1282" d="M121 0v1434h264v-531q117 150 332 150q206 0 352 -158q148 -157 148 -383q0 -228 -148 -385q-144 -156 -352 -156q-215 0 -332 150v-121h-264zM385 512q0 -126 80 -209q80 -80 203 -80q122 0 202 80q82 82 82 209q0 128 -82 207q-79 82 -202 82q-124 0 -203 -82 q-80 -80 -80 -207z" />
<glyph unicode="c" horiz-adv-x="1097" d="M68 512q0 229 153 385q156 156 387 156q149 0 272.5 -71.5t186.5 -193.5l-227 -133q-31 63 -93.5 100.5t-140.5 37.5q-119 0 -196.5 -79t-77.5 -202q0 -120 78 -201q78 -78 196 -78q79 0 142 36.5t94 99.5l229 -131q-68 -123 -191.5 -195t-271.5 -72q-231 0 -387 156 q-153 156 -153 385z" />
<glyph unicode="d" horiz-adv-x="1282" d="M66 512q0 226 145 383q149 158 354 158q215 0 332 -150v531h264v-1434h-264v121q-117 -150 -332 -150q-207 0 -354 156q-145 157 -145 385zM330 512q0 -126 80 -209q83 -80 204 -80q123 0 203 80q80 83 80 209q0 127 -80 207q-79 82 -203 82q-122 0 -204 -82 q-80 -80 -80 -207z" />
<glyph unicode="e" horiz-adv-x="1189" d="M68 512q0 231 151 385q150 156 389 156q227 0 371 -156q147 -156 147 -385q0 -44 -10 -109h-772q52 -192 289 -192q153 0 229 102l213 -123q-151 -219 -446 -219q-254 0 -408 154q-153 153 -153 387zM340 608h522q-23 101 -91.5 154t-162.5 53q-105 0 -175 -54t-93 -153z " />
<glyph unicode="f" horiz-adv-x="671" d="M43 770v254h147v10q0 219 122 330q110 99 312 99q23 0 48 -1v-254q-16 1 -31 1q-186 0 -186 -175v-10h217v-254h-217v-770h-265v770h-147z" />
<glyph unicode="g" horiz-adv-x="1282" d="M68 528q0 218 147 371q148 154 363 154q210 0 327 -156v127h258v-975q0 -235 -157 -362q-155 -125 -377 -125q-167 0 -293 64t-193 186l226 129q77 -144 268 -144q126 0 197 66t71 186v111q-117 -156 -327 -156q-216 0 -365 152q-145 154 -145 372zM332 528 q0 -123 80.5 -201.5t205.5 -78.5t206 78.5t81 201.5t-82 199q-80 80 -205 80q-123 0 -206 -80q-80 -77 -80 -199z" />
<glyph unicode="h" horiz-adv-x="1181" d="M121 0v1434h264v-525q95 144 305 144q170 0 277 -113q110 -113 110 -311v-629h-264v596q0 101 -54.5 156t-148.5 55q-105 0 -165 -64.5t-60 -189.5v-553h-264z" />
<glyph unicode="i" horiz-adv-x="505" d="M90 1309q0 66 48 115t114 49q67 0 115.5 -49t48.5 -115t-48.5 -114t-115.5 -48q-66 0 -114 48t-48 114zM121 0v1024h264v-1024h-264z" />
<glyph unicode="j" horiz-adv-x="540" d="M-27 -184q13 -1 24 -1q76 0 115 34q44 39 44 131v1044h264v-1044q0 -226 -110 -328q-98 -91 -287 -91q-24 0 -50 1v254zM125 1309q0 66 48.5 115t115.5 49q66 0 114 -49t48 -115t-48 -114t-114 -48q-67 0 -115.5 48t-48.5 114z" />
<glyph unicode="k" d="M121 0v1434h264v-861l352 451h316l-412 -506l424 -518h-307l-373 465v-465h-264z" />
<glyph unicode="l" horiz-adv-x="505" d="M121 0v1495h264v-1495h-264z" />
<glyph unicode="m" horiz-adv-x="1744" d="M121 0v1024h264v-109q91 138 285 138q189 0 278 -148q103 148 305 148q177 0 282 -115t105 -307v-631h-264v612q0 92 -45 143.5t-127 51.5q-91 0 -140.5 -60t-49.5 -172v-575h-264v612q0 92 -45 143.5t-127 51.5q-89 0 -141 -60.5t-52 -171.5v-575h-264z" />
<glyph unicode="n" horiz-adv-x="1181" d="M121 0v1024h264v-115q95 144 305 144q170 0 277 -113q110 -113 110 -311v-629h-264v596q0 101 -54.5 156t-148.5 55q-105 0 -165 -64.5t-60 -189.5v-553h-264z" />
<glyph unicode="o" horiz-adv-x="1216" d="M68 512q0 228 155 383q158 158 385 158t385 -158t158 -383q0 -227 -158 -385q-156 -156 -385 -156t-385 156q-155 155 -155 385zM332 512q0 -122 78 -203q80 -80 198 -80q119 0 199 80t80 203t-80 203t-199 80q-118 0 -198 -80q-78 -81 -78 -203z" />
<glyph unicode="p" horiz-adv-x="1282" d="M121 -410v1434h264v-121q117 150 332 150q206 0 352 -158q148 -157 148 -383q0 -228 -148 -385q-144 -156 -352 -156q-215 0 -332 150v-531h-264zM385 512q0 -126 80 -209q80 -80 203 -80q122 0 202 80q82 82 82 209q0 128 -82 207q-79 82 -202 82q-124 0 -203 -82 q-80 -80 -80 -207z" />
<glyph unicode="q" horiz-adv-x="1282" d="M66 512q0 226 145 383q149 158 354 158q215 0 332 -150v121h264v-1434h-264v531q-117 -150 -332 -150q-207 0 -354 156q-145 157 -145 385zM330 512q0 -126 80 -209q83 -80 204 -80q123 0 203 80q80 83 80 209q0 127 -80 207q-79 82 -203 82q-122 0 -204 -82 q-80 -80 -80 -207z" />
<glyph unicode="r" horiz-adv-x="729" d="M121 0v1024h264v-176q36 95 119.5 145.5t191.5 50.5v-294q-23 3 -44 3q-95 0 -173 -53q-94 -64 -94 -211v-489h-264z" />
<glyph unicode="s" horiz-adv-x="952" d="M51 215l230 129q47 -133 200 -133q142 0 142 88q0 38 -48.5 64t-138.5 49q-55 14 -95 27t-90 39t-81.5 57.5t-53.5 81t-22 110.5q0 153 111 238q113 88 278 88q125 0 227 -56.5t162 -160.5l-225 -123q-49 104 -164 104q-52 0 -85 -23t-33 -61t48 -63.5t138 -48.5 q51 -11 94 -24.5t91 -39.5t81 -59q33 -32 55 -84q21 -49 21 -110v-5q0 -159 -119 -244q-119 -84 -293 -84q-316 0 -430 244z" />
<glyph unicode="t" horiz-adv-x="788" d="M33 770v254h178v207l264 80v-287h232v-254h-232v-426q0 -53 27 -78q26 -26 78 -28q20 -1 43 0q37 0 84 2v-240q-73 -8 -135 -8q-166 0 -248 58q-114 80 -113 294v426h-178z" />
<glyph unicode="u" horiz-adv-x="1181" d="M104 395v629h265v-596q0 -101 54 -156t148 -55q105 0 165.5 64.5t60.5 189.5v553h264v-1024h-264v115q-95 -144 -305 -144q-169 0 -279 113q-109 115 -109 311z" />
<glyph unicode="v" horiz-adv-x="1091" d="M6 1024h291l248 -717l250 717h290l-389 -1024h-301z" />
<glyph unicode="w" horiz-adv-x="1576" d="M23 1024h280l174 -629l187 629h249l187 -631l174 631h280l-325 -1024h-252l-189 621l-188 -621h-252z" />
<glyph unicode="x" d="M10 0l375 522l-358 502h305l207 -289l206 289h304l-359 -500l375 -524h-305l-221 311l-224 -311h-305z" />
<glyph unicode="y" d="M6 1024h289l266 -688l227 688h283l-373 -1024q-79 -221 -211 -321q-119 -90 -291 -90q-18 0 -38 1v246h4q102 0 164 46q63 46 100 151z" />
<glyph unicode="z" horiz-adv-x="970" d="M88 0v176l432 600h-411v248h768v-176l-435 -600h455v-248h-809z" />
<glyph unicode="{" horiz-adv-x="735" d="M102 592v256q89 -6 125.5 19.5t36.5 107.5v303q0 411 430 381v-254q-89 11 -127.5 -16.5t-38.5 -110.5v-303q0 -187 -122 -254q122 -70 122 -256v-303q0 -83 38.5 -110.5t127.5 -16.5v-254q-430 -30 -430 381v303q0 82 -36.5 107.5t-125.5 19.5z" />
<glyph unicode="|" horiz-adv-x="530" d="M133 -410v1885h264v-1885h-264z" />
<glyph unicode="}" horiz-adv-x="735" d="M41 35q89 -11 127.5 16.5t38.5 110.5v303q0 185 123 256q-123 68 -123 254v303q0 83 -38.5 110.5t-127.5 16.5v254q430 30 430 -381v-303q0 -82 36.5 -107.5t125.5 -19.5v-256q-89 6 -125.5 -19.5t-36.5 -107.5v-303q0 -411 -430 -381v254z" />
<glyph unicode="~" horiz-adv-x="1226" d="M92 625q35 132 112 205.5t178.5 78.5t221.5 -51q58 -26 94 -40.5t69.5 -22t52.5 -4.5t38.5 17.5t32.5 37.5t29 61l215 -104q-35 -133 -112 -207t-178.5 -78.5t-221.5 53.5q-109 52 -165 63.5t-90 -13.5t-61 -99z" />
<glyph unicode="&#xa2;" horiz-adv-x="1097" d="M68 717q0 229 153 385q155 155 387 155q60 0 99 -8l59 185h119l-70 -217q169 -67 252 -224l-227 -133q-35 72 -107 107l-168 -527q8 -2 41 -2q79 0 142 36t94 99l229 -131q-68 -123 -191.5 -194.5t-271.5 -71.5q-73 0 -125 14l-61 -190h-119l72 225q-142 63 -224.5 195 t-82.5 297zM332 717q0 -162 125 -238l168 518h-19q-119 0 -196.5 -78.5t-77.5 -201.5z" />
<glyph unicode="&#xa3;" horiz-adv-x="1189" d="M68 0v272h149v289h-125v248h125v205q0 217 133 332q134 116 318 116q155 0 271 -78.5t173 -220.5l-244 -139q-53 164 -194 164q-78 0 -127 -48t-49 -136v-195h415v-248h-415v-289h669v-272h-1099z" />
<glyph unicode="&#xa5;" horiz-adv-x="1230" d="M6 1434h320l311 -598l311 598h320l-389 -693h208v-163h-301l-10 -19v-74h311v-166h-311v-319h-280v319h-351v166h351v74l-11 19h-340v163h248z" />
<glyph unicode="&#xa8;" horiz-adv-x="747" d="M41 1261.5q0 57.5 41 98.5t98.5 41t95.5 -41q41 -41 41 -98.5t-41 -98.5q-38 -38 -95.5 -38t-98.5 38q-41 41 -41 98.5zM430 1261.5q0 57.5 41 98.5t99 41t96 -41q41 -41 41 -98.5t-41 -98.5q-38 -38 -96 -38t-99 38q-41 41 -41 98.5z" />
<glyph unicode="&#xa9;" horiz-adv-x="1615" d="M68 717q0 307 217 524t524 217t524 -217t217 -524t-217 -524q-218 -218 -524 -218t-524 218q-217 217 -217 524zM143 717q0 -277 195 -475q194 -197 471 -197q275 0 469 197q195 198 195 475t-195 475q-194 197 -469 197q-277 0 -471 -197q-195 -198 -195 -475zM410 717 q0 164 118 282q119 119 287 119q107 0 199 -52.5t143 -143.5l-196 -115q-44 84 -152 84q-76 0 -124 -50t-48 -124t48 -124t124 -50q105 0 152 86l198 -117q-51 -90 -144.5 -143.5t-199.5 -53.5q-168 0 -287 119q-118 118 -118 283z" />
<glyph unicode="&#xab;" horiz-adv-x="1116" d="M129 633l225 385h244l-225 -385l225 -383h-244zM518 633l225 385h244l-225 -385l225 -383h-244z" />
<glyph unicode="&#xad;" horiz-adv-x="1034" d="M133 492v253h768v-253h-768z" />
<glyph unicode="&#xae;" horiz-adv-x="1615" d="M68 717q0 307 217 524t524 217t524 -217t217 -524t-217 -524q-218 -218 -524 -218t-524 218q-217 217 -217 524zM143 717q0 -277 195 -475q194 -197 471 -197q275 0 469 197q195 198 195 475t-195 475q-194 197 -469 197q-277 0 -471 -197q-195 -198 -195 -475zM528 338 v758h306q125 0 208.5 -71t83.5 -181q0 -150 -112 -228l155 -278h-235l-109 225h-77v-225h-220zM748 748h67q42 0 67 20t25 53q0 76 -92 76h-67v-149z" />
<glyph unicode="&#xb4;" horiz-adv-x="563" d="M41 1153l164 281h317l-227 -281h-254z" />
<glyph unicode="&#xb8;" horiz-adv-x="532" d="M41 -256q221 -15 221 41q0 42 -129 51v164h215v-94q64 -14 104 -55.5t40 -104.5q0 -215 -451 -188v186z" />
<glyph unicode="&#xbb;" horiz-adv-x="1116" d="M129 250l225 383l-225 385h244l225 -385l-225 -383h-244zM518 250l225 383l-225 385h244l225 -385l-225 -383h-244z" />
<glyph unicode="&#x2c6;" horiz-adv-x="784" d="M41 1137l217 297h268l217 -297h-262l-88 133l-90 -133h-262z" />
<glyph unicode="&#x2da;" horiz-adv-x="600" d="M41 1348q0 104 73 172.5t185 68.5q115 0 186.5 -68t71.5 -173q0 -107 -71.5 -175.5t-186.5 -68.5q-112 0 -185 69.5t-73 174.5zM219 1348q0 -35 21.5 -56.5t58.5 -21.5q82 0 82 78q0 75 -82 75q-36 0 -58 -21t-22 -54z" />
<glyph unicode="&#x2dc;" horiz-adv-x="776" d="M43 1147q0 93 22 160t59 100t85 42.5t101 -5t106 -49.5q60 -42 83 -32.5t23 81.5h215q0 -95 -22 -162t-59 -99.5t-85 -41.5t-100.5 6t-105.5 49q-60 43 -84.5 33t-24.5 -82h-213z" />
<glyph unicode="&#x401;" horiz-adv-x="1085" d="M133 0v1434h877v-271h-594v-305h542v-266h-542v-322h604v-270h-887zM238 1671q0 57 41 98t98.5 41t95.5 -41q41 -41 41 -98t-41 -98q-38 -38 -95.5 -38t-98.5 38q-41 41 -41 98zM627 1671q0 57 41 98t98.5 41t95.5 -41q41 -41 41 -98t-41 -98q-38 -38 -95.5 -38t-98.5 38 q-41 41 -41 98z" />
<glyph unicode="&#x402;" horiz-adv-x="1439" d="M27 1163v271h1048v-271h-407v-254q142 45 284 45q179 0 282 -104.5t103 -294.5v-158q0 -226 -109 -328.5t-335 -88.5v262q90 -6 127 29t37 126v129q0 174 -166 174q-95 0 -223 -41v-659h-281v1163h-360z" />
<glyph unicode="&#x403;" horiz-adv-x="972" d="M133 0v1434h815v-271h-532v-1163h-283zM387 1561l164 280h317l-227 -280h-254z" />
<glyph unicode="&#x404;" horiz-adv-x="1482" d="M66 717q0 320 210 530q212 215 535 215q191 0 356 -91t258 -247l-243 -141q-54 97 -152 151t-219 54q-172 0 -292 -91t-157 -247h639v-264h-639q37 -156 157 -247t292 -91q121 0 220.5 54.5t150.5 148.5l243 -142q-93 -156 -256.5 -247t-357.5 -91q-323 0 -535 215 q-210 213 -210 531z" />
<glyph unicode="&#x405;" horiz-adv-x="1193" d="M59 326l242 141q83 -219 330 -219q114 0 171.5 41t57.5 110q0 77 -67 117q-66 42 -242 92q-103 31 -167.5 59.5t-129.5 73.5q-135 101 -135 295q0 197 137 310q137 116 334 116q172 0 305 -84t207 -237l-238 -137q-85 184 -274 184q-87 0 -138 -40t-51 -104 q0 -66 56 -110q59 -41 217 -90l98 -33q18 -5 92 -35q59 -21 90 -43q39 -25 78.5 -59.5t57.5 -67.5q53 -84 53 -203q0 -196 -146 -315q-144 -117 -374 -117q-211 0 -357 94t-207 261z" />
<glyph unicode="&#x406;" horiz-adv-x="548" d="M133 0v1434h283v-1434h-283z" />
<glyph unicode="&#x407;" horiz-adv-x="548" d="M-59 1671q0 57 41 98t98.5 41t95.5 -41q41 -41 41 -98t-41 -98q-38 -38 -95.5 -38t-98.5 38q-41 41 -41 98zM133 0v1434h283v-1434h-283zM330 1671q0 57 41 98t98.5 41t95.5 -41q41 -41 41 -98t-41 -98q-38 -38 -95.5 -38t-98.5 38q-41 41 -41 98z" />
<glyph unicode="&#x408;" horiz-adv-x="1165" d="M68 244l243 139q67 -135 230 -135q110 0 166.5 52t56.5 146v988h280v-988q0 -224 -141 -350q-140 -125 -362 -125q-338 0 -473 273z" />
<glyph unicode="&#x409;" horiz-adv-x="1968" d="M23 -4v262q132 -14 192.5 58.5t60.5 269.5v848h945v-537h213q205 0 344 -127t139 -321q0 -197 -139 -324q-137 -125 -344 -125h-494v1163h-383v-569q0 -183 -44.5 -312t-125.5 -192q-146 -115 -364 -94zM1221 264h213q89 0 145.5 50t56.5 135t-56.5 134.5t-145.5 49.5 h-213v-369z" />
<glyph unicode="&#x40a;" horiz-adv-x="1961" d="M133 0v1434h283v-537h516v537h282v-537h211q208 0 347 -127t139 -321q0 -197 -139 -324q-137 -125 -347 -125h-493v633h-516v-633h-283zM1214 264h211q89 0 146 50t57 135t-56.5 134.5t-146.5 49.5h-211v-369z" />
<glyph unicode="&#x40b;" horiz-adv-x="1449" d="M27 1163v271h1048v-271h-407v-254q142 45 284 45q179 0 282 -104.5t103 -294.5v-555h-280v526q0 174 -166 174q-95 0 -223 -41v-659h-281v1163h-360z" />
<glyph unicode="&#x40c;" horiz-adv-x="1259" d="M133 0v1434h283v-633l491 633h326l-531 -697l551 -737h-325l-512 672v-672h-283zM469 1561l164 280h317l-227 -280h-254z" />
<glyph unicode="&#x40e;" horiz-adv-x="1228" d="M47 1434h283l313 -693l283 693h282l-430 -1039q-171 -416 -565 -395v264q113 -10 183.5 31t119.5 137zM322 1563v229h593v-229h-593z" />
<glyph unicode="&#x40f;" horiz-adv-x="1337" d="M133 0v1434h283v-1164h506v1164h282v-1434h-395v-274h-281v274h-395z" />
<glyph unicode="&#x410;" horiz-adv-x="1368" d="M6 0l502 1434h350l504 -1434h-307l-86 258h-572l-86 -258h-305zM487 522h394l-197 586z" />
<glyph unicode="&#x411;" horiz-adv-x="1198" d="M133 0v1434h901v-271h-618v-272h266q211 0 342 -125q133 -124 133 -320t-133 -323q-132 -123 -342 -123h-549zM416 264h266q87 0 141 48.5t54 133.5q0 84 -54 132.5t-141 48.5h-266v-363z" />
<glyph unicode="&#x412;" horiz-adv-x="1239" d="M133 0v1434h565q183 0 310 -115t127 -289q0 -178 -136 -287q189 -109 189 -327q0 -182 -129 -299t-318 -117h-608zM416 264h325q72 0 119 48t47 122q0 72 -47 120t-119 48h-325v-338zM416 854h282q66 0 110 45t44 113t-43.5 112.5t-110.5 44.5h-282v-315z" />
<glyph unicode="&#x413;" horiz-adv-x="972" d="M133 0v1434h815v-271h-532v-1163h-283z" />
<glyph unicode="&#x414;" horiz-adv-x="1443" d="M31 270h139q119 165 119 486v678h946v-1164h154v-544h-283v274h-793v-274h-282v544zM473 270h479v899h-381v-417q0 -314 -98 -482z" />
<glyph unicode="&#x415;" horiz-adv-x="1085" d="M133 0v1434h877v-271h-594v-305h542v-266h-542v-322h604v-270h-887z" />
<glyph unicode="&#x416;" horiz-adv-x="1851" d="M27 0l497 731l-477 703h313l424 -639v639h283v-639l424 639h315l-479 -703l500 -731h-316l-444 653v-653h-283v653l-444 -653h-313z" />
<glyph unicode="&#x417;" horiz-adv-x="1148" d="M43 309l244 137q64 -208 291 -208q116 0 177.5 48t61.5 134t-60.5 134t-172.5 48h-178v252h135q105 0 165 46t60 126q0 81 -52.5 126.5t-150.5 45.5q-185 0 -258 -180l-239 139q144 305 497 305q213 0 348 -114q136 -115 136 -304q0 -191 -154 -303q205 -108 205 -340 q0 -189 -146 -311q-143 -119 -374 -119q-400 0 -535 338z" />
<glyph unicode="&#x418;" horiz-adv-x="1378" d="M133 0v1434h283v-877l614 877h215v-1434h-282v874l-615 -874h-215z" />
<glyph unicode="&#x419;" horiz-adv-x="1378" d="M133 0v1434h283v-877l614 877h215v-1434h-282v874l-615 -874h-215zM391 1565v229h594v-229h-594z" />
<glyph unicode="&#x41a;" horiz-adv-x="1259" d="M133 0v1434h283v-633l491 633h326l-531 -697l551 -737h-325l-512 672v-672h-283z" />
<glyph unicode="&#x41b;" horiz-adv-x="1384" d="M23 0v262q131 -19 192 54t61 270v848h975v-1434h-280v1163h-414v-569q0 -183 -44.5 -311t-125.5 -191q-76 -60 -164 -81.5t-200 -10.5z" />
<glyph unicode="&#x41c;" horiz-adv-x="1669" d="M133 0v1434h291l412 -678l409 678h291v-1434h-281v930l-403 -666h-33l-403 664v-928h-283z" />
<glyph unicode="&#x41d;" horiz-adv-x="1361" d="M133 0v1434h283v-570h532v570h281v-1434h-281v594h-532v-594h-283z" />
<glyph unicode="&#x41e;" horiz-adv-x="1622" d="M68 717q0 313 215 528q217 217 528 217t528 -217q217 -214 217 -528t-217 -531q-218 -215 -528 -215t-528 215q-215 218 -215 531zM348 717q0 -205 133 -338q131 -131 330 -131t330 131q133 133 133 338t-133 338t-330 133t-330 -133t-133 -338z" />
<glyph unicode="&#x41f;" horiz-adv-x="1337" d="M133 0v1434h1071v-1434h-282v1163h-506v-1163h-283z" />
<glyph unicode="&#x420;" horiz-adv-x="1208" d="M133 0v1434h535q205 0 348 -140q141 -138 141 -342t-141 -342q-142 -139 -348 -139h-252v-471h-283zM416 735h252q90 0 149.5 62t59.5 155q0 94 -59 155.5t-150 61.5h-252v-434z" />
<glyph unicode="&#x421;" horiz-adv-x="1486" d="M68 717q0 319 211 530q212 215 534 215q194 0 359 -91t258 -247l-244 -141q-54 97 -152 151t-221 54q-210 0 -338 -131q-127 -133 -127 -340q0 -205 127 -338q128 -131 338 -131q123 0 222.5 54.5t150.5 148.5l244 -142q-93 -156 -257.5 -247t-359.5 -91q-322 0 -534 215 q-211 214 -211 531z" />
<glyph unicode="&#x422;" horiz-adv-x="1105" d="M27 1163v271h1054v-271h-387v-1163h-282v1163h-385z" />
<glyph unicode="&#x423;" horiz-adv-x="1228" d="M47 1434h283l313 -693l283 693h282l-430 -1039q-171 -416 -565 -395v264q113 -10 183.5 31t119.5 137z" />
<glyph unicode="&#x424;" horiz-adv-x="1677" d="M47 717q0 247 176 397q177 154 477 184v166h277v-166q296 -27 477 -182q178 -153 178 -399q0 -247 -178 -400q-181 -155 -477 -182v-166h-277v166q-299 30 -477 182q-176 153 -176 400zM328 717q0 -281 372 -322v645q-372 -40 -372 -323zM977 393q373 44 373 324 q0 281 -373 325v-649z" />
<glyph unicode="&#x425;" horiz-adv-x="1249" d="M27 0l438 735l-416 699h320l256 -430l256 430h319l-416 -697l441 -737h-322l-278 467l-279 -467h-319z" />
<glyph unicode="&#x426;" horiz-adv-x="1413" d="M133 0v1434h283v-1164h506v1164h282v-1164h154v-544h-283v274h-942z" />
<glyph unicode="&#x427;" horiz-adv-x="1296" d="M102 922v512h283v-476q0 -102 60 -160.5t161 -58.5q146 0 275 60v635h282v-1434h-282v524q-131 -55 -281 -55q-216 0 -358 121q-140 125 -140 332z" />
<glyph unicode="&#x428;" horiz-adv-x="1931" d="M133 0v1434h283v-1164h409v1164h281v-1164h410v1164h282v-1434h-1665z" />
<glyph unicode="&#x429;" horiz-adv-x="2007" d="M133 0v1434h283v-1164h409v1164h281v-1164h410v1164h282v-1164h154v-544h-283v274h-1536z" />
<glyph unicode="&#x42a;" horiz-adv-x="1419" d="M0 1163v271h625v-471h254q205 0 348 -140q141 -138 141 -342t-141 -342q-142 -139 -348 -139h-535v1163h-344zM625 264h254q90 0 148 61.5t58 155.5t-58 155.5t-148 61.5h-254v-434z" />
<glyph unicode="&#x42b;" horiz-adv-x="1701" d="M133 0v1434h283v-471h252q205 0 348 -140q141 -138 141 -342t-141 -342q-142 -139 -348 -139h-535zM416 264h252q91 0 150 61.5t59 155.5t-59 155.5t-150 61.5h-252v-434zM1288 0v1434h281v-1434h-281z" />
<glyph unicode="&#x42c;" horiz-adv-x="1208" d="M133 0v1434h283v-471h252q205 0 348 -140q141 -138 141 -342t-141 -342q-142 -139 -348 -139h-535zM416 264h252q91 0 150 61.5t59 155.5q0 93 -59.5 155t-149.5 62h-252v-434z" />
<glyph unicode="&#x42d;" horiz-adv-x="1482" d="M57 309l244 142q51 -94 150.5 -148.5t220.5 -54.5q172 0 291.5 91t156.5 247h-639v264h639q-37 156 -156.5 247t-291.5 91q-121 0 -219 -54t-152 -151l-244 141q92 156 257.5 247t357.5 91q322 0 534 -215q211 -211 211 -530q0 -317 -211 -531q-212 -215 -534 -215 q-194 0 -358 91t-257 247z" />
<glyph unicode="&#x42e;" horiz-adv-x="2160" d="M133 0v1434h283v-562h213q52 257 252 424q199 166 469 166q311 0 528 -217q217 -214 217 -528q0 -312 -217 -529t-528 -217q-278 0 -484 179q-202 178 -243 452h-207v-602h-283zM887 717q0 -205 133 -338q131 -131 330 -131q198 0 329 131q133 133 133 338t-133 338 t-329 133q-201 0 -332 -131t-131 -340z" />
<glyph unicode="&#x42f;" horiz-adv-x="1277" d="M53 0l350 528q-137 50 -223 169t-86 261q0 197 139 336q140 140 338 140h574v-1434h-283v498h-162l-329 -498h-318zM377 958q0 -88 57 -150.5t137 -62.5h291v424h-291q-80 0 -137 -62t-57 -149z" />
<glyph unicode="&#x430;" horiz-adv-x="1282" d="M68 512q0 226 145 383q149 158 352 158q214 0 334 -150v121h264v-1024h-264v121q-120 -150 -334 -150q-205 0 -352 156q-145 157 -145 385zM332 512q0 -126 80 -209q80 -80 202 -80q123 0 203 80q82 82 82 209q0 128 -82 207q-79 82 -203 82q-123 0 -202 -82 q-80 -80 -80 -207z" />
<glyph unicode="&#x431;" horiz-adv-x="1161" d="M68 522q0 262 77 404q76 142 314 260q7 3 40 19t58 26l86 43q23 11 66 37q52 32 76 64t53 98l217 -125q-27 -125 -121 -195t-279 -139q-127 -50 -188 -101t-88 -125q114 117 307 117q172 0 303 -125q133 -124 133 -327q0 -213 -143 -347q-141 -135 -373 -135 q-241 0 -391 156q-147 156 -147 395zM344 461q0 -107 74 -178q76 -70 186 -70q111 0 182 68q72 69 72 172q0 105 -72 173t-184 68q-102 0 -180 -63q-78 -66 -78 -170z" />
<glyph unicode="&#x432;" horiz-adv-x="1046" d="M121 0v1024h497q159 0 249.5 -79t90.5 -210q0 -136 -100 -211q143 -70 143 -233q0 -132 -90.5 -211.5t-251.5 -79.5h-538zM369 223h260q114 0 114 99q0 43 -30 67.5t-84 24.5h-260v-191zM369 623h225q113 0 113 92t-113 92h-225v-184z" />
<glyph unicode="&#x433;" horiz-adv-x="841" d="M121 0v1024h700v-254h-436v-770h-264z" />
<glyph unicode="&#x434;" horiz-adv-x="1224" d="M27 248h125q88 131 88 362v414h802v-776h136v-522h-258v274h-635v-274h-258v522zM434 248h350v538h-286v-176q0 -219 -64 -362z" />
<glyph unicode="&#x435;" horiz-adv-x="1189" d="M68 512q0 231 151 385q150 156 389 156q227 0 371 -156q147 -156 147 -385q0 -44 -10 -109h-772q52 -192 289 -192q153 0 229 102l213 -123q-151 -219 -446 -219q-254 0 -408 154q-153 153 -153 387zM340 608h522q-23 101 -91.5 154t-162.5 53q-105 0 -175 -54t-93 -153z " />
<glyph unicode="&#x436;" horiz-adv-x="1527" d="M27 0l368 518l-348 506h295l293 -444v444h258v-444l293 444h297l-350 -506l370 -518h-297l-313 459v-459h-258v459l-313 -459h-295z" />
<glyph unicode="&#x437;" horiz-adv-x="921" d="M39 217l215 127q50 -139 211 -139q73 0 113 28t40 78q0 95 -120 95h-146v225h111q119 0 119 94q0 44 -35 71t-92 27q-133 0 -191 -129l-213 123q117 236 400 236q174 0 278 -90q105 -88 105 -215q0 -150 -113 -226q156 -76 156 -243q0 -134 -111 -221t-303 -87 q-310 0 -424 246z" />
<glyph unicode="&#x438;" horiz-adv-x="1177" d="M121 0v1024h258v-582l481 582h197v-1024h-258v582l-482 -582h-196z" />
<glyph unicode="&#x439;" horiz-adv-x="1177" d="M121 0v1024h258v-582l481 582h197v-1024h-258v582l-482 -582h-196zM293 1155v229h594v-229h-594z" />
<glyph unicode="&#x43a;" d="M121 0v1024h264v-451l352 451h316l-412 -506l424 -518h-307l-373 465v-465h-264z" />
<glyph unicode="&#x43b;" horiz-adv-x="1118" d="M20 0v248q82 -20 125 28t43 166v582h811v-1024h-264v770h-282v-342q0 -474 -433 -428z" />
<glyph unicode="&#x43c;" horiz-adv-x="1306" d="M121 0v1024h260l272 -430l273 430h260v-1024h-256v598l-260 -410h-33l-262 414v-602h-254z" />
<glyph unicode="&#x43d;" horiz-adv-x="1177" d="M121 0v1024h264v-387h408v387h264v-1024h-264v389h-408v-389h-264z" />
<glyph unicode="&#x43e;" horiz-adv-x="1216" d="M68 512q0 228 155 383q158 158 385 158t385 -158t158 -383q0 -227 -158 -385q-156 -156 -385 -156t-385 156q-155 155 -155 385zM332 512q0 -122 78 -203q80 -80 198 -80q119 0 199 80t80 203t-80 203t-199 80q-118 0 -198 -80q-78 -81 -78 -203z" />
<glyph unicode="&#x43f;" horiz-adv-x="1177" d="M121 0v1024h936v-1024h-264v776h-408v-776h-264z" />
<glyph unicode="&#x440;" horiz-adv-x="1282" d="M121 -410v1434h264v-121q117 150 332 150q206 0 352 -158q148 -157 148 -383q0 -228 -148 -385q-144 -156 -352 -156q-215 0 -332 150v-531h-264zM385 512q0 -126 80 -209q80 -80 203 -80q122 0 202 80q82 82 82 209q0 128 -82 207q-79 82 -202 82q-124 0 -203 -82 q-80 -80 -80 -207z" />
<glyph unicode="&#x441;" horiz-adv-x="1097" d="M68 512q0 229 153 385q156 156 387 156q149 0 272.5 -71.5t186.5 -193.5l-227 -133q-31 63 -93.5 100.5t-140.5 37.5q-119 0 -196.5 -79t-77.5 -202q0 -120 78 -201q78 -78 196 -78q79 0 142 36.5t94 99.5l229 -131q-68 -123 -191.5 -195t-271.5 -72q-231 0 -387 156 q-153 156 -153 385z" />
<glyph unicode="&#x442;" horiz-adv-x="948" d="M20 770v254h908v-254h-320v-770h-264v770h-324z" />
<glyph unicode="&#x443;" d="M6 1024h281l274 -688l227 688h283l-373 -1024q-155 -431 -540 -410v246q104 -2 164.5 38.5t97.5 137.5z" />
<glyph unicode="&#x444;" horiz-adv-x="1402" d="M68 512q0 206 135 350t370 178v394h258v-394q236 -34 371 -178t135 -350t-135 -350t-371 -178v-394h-258v394q-235 34 -370 178t-135 350zM328 512q0 -104 64 -177t181 -99v552q-118 -26 -181.5 -98.5t-63.5 -177.5zM831 238q117 26 180.5 98t63.5 176q0 105 -63 177.5 t-181 98.5v-550z" />
<glyph unicode="&#x445;" d="M10 0l375 522l-358 502h305l207 -289l206 289h304l-359 -500l375 -524h-305l-221 311l-224 -311h-305z" />
<glyph unicode="&#x446;" horiz-adv-x="1239" d="M121 0v1024h264v-776h373v776h264v-776h172v-522h-258v274h-815z" />
<glyph unicode="&#x447;" horiz-adv-x="1107" d="M72 657v367h264v-336q0 -153 190 -153q116 0 199 38v451h264v-1024h-264v326q-112 -37 -244 -37q-189 0 -299 95.5t-110 272.5z" />
<glyph unicode="&#x448;" horiz-adv-x="1705" d="M121 0v1024h264v-776h336v776h264v-776h336v776h264v-1024h-1464z" />
<glyph unicode="&#x449;" horiz-adv-x="1736" d="M121 0v1024h264v-776h320v776h264v-776h321v776h264v-776h136v-522h-258v274h-1311z" />
<glyph unicode="&#x44a;" horiz-adv-x="1175" d="M0 770v254h543v-328h200q174 0 279.5 -95t105.5 -253t-105.5 -253t-279.5 -95h-464v770h-279zM543 233h200q56 0 91.5 32t35.5 83t-36 84t-91 33h-200v-232z" />
<glyph unicode="&#x44b;" horiz-adv-x="1468" d="M121 0v1024h264v-328h199q174 0 280.5 -95t106.5 -253t-106.5 -253t-280.5 -95h-463zM385 233h201q56 0 91.5 32t35.5 83t-36 84t-91 33h-201v-232zM1083 0v1024h265v-1024h-265z" />
<glyph unicode="&#x44c;" horiz-adv-x="1015" d="M121 0v1024h264v-328h199q174 0 280.5 -95t106.5 -253t-106.5 -253t-280.5 -95h-463zM385 233h201q56 0 91.5 32t35.5 83t-36 84t-91 33h-201v-232z" />
<glyph unicode="&#x44d;" horiz-adv-x="1099" d="M27 238l223 129q27 -64 93.5 -103t156.5 -39q85 0 152 46t98 122h-349v238h349q-31 76 -98 122t-152 46q-180 0 -248 -140l-223 129q67 123 191 194t278 71q231 0 383 -152q151 -151 151 -389q0 -240 -151 -391q-150 -150 -385 -150q-157 0 -282 72t-187 195z" />
<glyph unicode="&#x44e;" horiz-adv-x="1660" d="M121 0v1024h264v-387h150q41 183 184 299q144 117 334 117q227 0 385 -158q157 -157 157 -383q0 -228 -157 -385q-156 -156 -385 -156q-192 0 -336 117q-145 118 -185 301h-147v-389h-264zM776 512q0 -122 78 -203q80 -80 199 -80q118 0 198 80t80 203t-80 203t-198 80 q-119 0 -199 -80q-78 -81 -78 -203z" />
<glyph unicode="&#x44f;" horiz-adv-x="1062" d="M51 0l256 350q-98 41 -156.5 129.5t-58.5 192.5q0 142 103 248q101 104 268 104h479v-1024h-258v319h-92l-236 -319h-305zM350 664q0 -55 37.5 -88t95.5 -33h201v245h-201q-58 0 -95.5 -34t-37.5 -90z" />
<glyph unicode="&#x451;" horiz-adv-x="1189" d="M68 512q0 231 151 385q150 156 389 156q227 0 371 -156q147 -156 147 -385q0 -44 -10 -109h-772q52 -192 289 -192q153 0 229 102l213 -123q-151 -219 -446 -219q-254 0 -408 154q-153 153 -153 387zM262 1269.5q0 57.5 41 98.5t99 41t96 -41q41 -41 41 -98.5t-41 -98.5 q-38 -38 -96 -38t-99 38q-41 41 -41 98.5zM340 608h522q-23 101 -91.5 154t-162.5 53q-105 0 -175 -54t-93 -153zM651 1269.5q0 57.5 41 98.5t99 41t96 -41q41 -41 41 -98.5t-41 -98.5q-38 -38 -96 -38t-99 38q-41 41 -41 98.5z" />
<glyph unicode="&#x452;" horiz-adv-x="1193" d="M6 1135v172h127v127h264v-127h289v-172h-289v-228q96 146 305 146q172 0 279 -113q111 -114 111 -311v-649q0 -225 -110.5 -328.5t-336.5 -89.5v254q94 -6 138 33t44 131v616q0 101 -55 156t-149 55q-105 0 -165.5 -64.5t-60.5 -189.5v-553h-264v1135h-127z" />
<glyph unicode="&#x453;" horiz-adv-x="841" d="M121 0v1024h700v-254h-436v-770h-264zM274 1153l164 281h318l-228 -281h-254z" />
<glyph unicode="&#x454;" horiz-adv-x="1099" d="M68 512q0 240 149 389q152 152 385 152q154 0 278 -71t191 -194l-223 -129q-68 140 -248 140q-85 0 -152 -46t-98 -122h348v-238h-348q31 -76 98 -122t152 -46q90 0 156.5 39t93.5 103l223 -129q-62 -123 -187 -195t-282 -72q-237 0 -387 150q-149 149 -149 391z" />
<glyph unicode="&#x455;" horiz-adv-x="952" d="M51 215l230 129q47 -133 200 -133q142 0 142 88q0 38 -48.5 64t-138.5 49q-55 14 -95 27t-90 39t-81.5 57.5t-53.5 81t-22 110.5q0 153 111 238q113 88 278 88q125 0 227 -56.5t162 -160.5l-225 -123q-49 104 -164 104q-52 0 -85 -23t-33 -61t48 -63.5t138 -48.5 q51 -11 94 -24.5t91 -39.5t81 -59t55 -84.5t21 -114.5q0 -159 -119 -244q-119 -84 -293 -84q-316 0 -430 244z" />
<glyph unicode="&#x456;" horiz-adv-x="505" d="M90 1309q0 66 48 115t114 49q67 0 115.5 -49t48.5 -115t-48.5 -114t-115.5 -48q-66 0 -114 48t-48 114zM121 0v1024h264v-1024h-264z" />
<glyph unicode="&#x457;" horiz-adv-x="505" d="M-82 1261.5q0 57.5 41 98.5t99 41t96 -41q41 -41 41 -98.5t-41 -98.5q-38 -38 -96 -38t-99 38q-41 41 -41 98.5zM121 0v1024h264v-1024h-264zM307 1261.5q0 57.5 41 98.5t99 41t96 -41q41 -41 41 -98.5t-41 -98.5q-38 -38 -96 -38t-99 38q-41 41 -41 98.5z" />
<glyph unicode="&#x458;" horiz-adv-x="540" d="M-27 -184q94 -6 138.5 33t44.5 131v1044h264v-1044q0 -226 -110 -328.5t-337 -89.5v254zM125 1309q0 66 48.5 115t115.5 49q66 0 114 -49t48 -115t-48 -114t-114 -48q-67 0 -115.5 48t-48.5 114z" />
<glyph unicode="&#x459;" horiz-adv-x="1564" d="M20 -12v248q85 -11 126.5 40t41.5 166v582h791v-352h188q161 0 256 -90.5t95 -245.5q0 -154 -96 -245t-255 -91h-452v770h-262v-342q0 -235 -108 -344.5t-325 -95.5zM979 233h190q46 0 76.5 27.5t30.5 75.5t-30.5 75t-76.5 27h-190v-205z" />
<glyph unicode="&#x45a;" horiz-adv-x="1617" d="M104 0v1024h265v-352h383v352h264v-352h190q163 0 264 -92t101 -244t-102 -244t-263 -92h-454v424h-383v-424h-265zM1016 233h190q46 0 76.5 27.5t30.5 75.5t-30.5 75t-76.5 27h-190v-205z" />
<glyph unicode="&#x45b;" horiz-adv-x="1193" d="M6 1135v172h127v127h264v-127h289v-172h-289v-228q96 146 305 146q172 0 279 -113q111 -114 111 -311v-629h-265v596q0 101 -55 156t-149 55q-105 0 -165.5 -64.5t-60.5 -189.5v-553h-264v1135h-127z" />
<glyph unicode="&#x45c;" d="M121 0v1024h264v-451l352 451h316l-412 -506l424 -518h-307l-373 465v-465h-264zM387 1153l164 281h317l-227 -281h-254z" />
<glyph unicode="&#x45e;" d="M6 1024h281l274 -688l227 688h283l-373 -1024q-155 -431 -540 -410v246q104 -2 164.5 38.5t97.5 137.5zM242 1155v229h594v-229h-594z" />
<glyph unicode="&#x45f;" horiz-adv-x="1177" d="M121 0v1024h264v-776h408v776h264v-1024h-338v-274h-258v274h-340z" />
<glyph unicode="&#x490;" horiz-adv-x="972" d="M133 0v1434h533v245h282v-516h-532v-1163h-283z" />
<glyph unicode="&#x491;" horiz-adv-x="841" d="M121 0v1024h442v207h258v-461h-436v-770h-264z" />
<glyph unicode="&#x2000;" horiz-adv-x="920" />
<glyph unicode="&#x2001;" horiz-adv-x="1841" />
<glyph unicode="&#x2002;" horiz-adv-x="920" />
<glyph unicode="&#x2003;" horiz-adv-x="1841" />
<glyph unicode="&#x2004;" horiz-adv-x="613" />
<glyph unicode="&#x2005;" horiz-adv-x="460" />
<glyph unicode="&#x2006;" horiz-adv-x="306" />
<glyph unicode="&#x2007;" horiz-adv-x="306" />
<glyph unicode="&#x2008;" horiz-adv-x="230" />
<glyph unicode="&#x2009;" horiz-adv-x="368" />
<glyph unicode="&#x200a;" horiz-adv-x="102" />
<glyph unicode="&#x2010;" horiz-adv-x="1034" d="M133 492v253h768v-253h-768z" />
<glyph unicode="&#x2011;" horiz-adv-x="1034" d="M133 492v253h768v-253h-768z" />
<glyph unicode="&#x2012;" horiz-adv-x="1034" d="M133 492v253h768v-253h-768z" />
<glyph unicode="&#x2013;" horiz-adv-x="1320" d="M133 492v253h1055v-253h-1055z" />
<glyph unicode="&#x2014;" horiz-adv-x="1525" d="M133 492v253h1260v-253h-1260z" />
<glyph unicode="&#x2018;" horiz-adv-x="569" d="M100 864l154 570h215l-82 -570h-287z" />
<glyph unicode="&#x2019;" horiz-adv-x="569" d="M100 866l82 570h287l-154 -570h-215z" />
<glyph unicode="&#x201a;" horiz-adv-x="569" d="M100 -287l82 570h287l-154 -570h-215z" />
<glyph unicode="&#x201c;" horiz-adv-x="948" d="M100 864l154 570h215l-82 -570h-287zM479 864l154 570h215l-82 -570h-287z" />
<glyph unicode="&#x201d;" horiz-adv-x="948" d="M100 866l82 570h287l-154 -570h-215zM479 866l82 570h287l-154 -570h-215z" />
<glyph unicode="&#x201e;" horiz-adv-x="948" d="M100 -287l82 570h287l-154 -570h-215zM479 -287l82 570h287l-154 -570h-215z" />
<glyph unicode="&#x2022;" horiz-adv-x="737" d="M88 721q0 115 82 197q81 81 203 81q115 0 196 -81q82 -82 82 -197q0 -121 -82 -203t-196 -82q-121 0 -203 82t-82 203z" />
<glyph unicode="&#x2026;" horiz-adv-x="1480" d="M101 147.5q0 71.5 51 122.5t122.5 51t122.5 -51t51 -122.5t-51 -122.5t-122.5 -51t-122.5 51t-51 122.5zM567 147.5q0 71.5 51 122.5t123 51t123 -51t51 -122.5t-51 -122.5t-123 -51t-123 51t-51 122.5zM1032 147.5q0 71.5 51 122.5t123 51t123 -51t51 -122.5t-51 -122.5 t-123 -51t-123 51t-51 122.5z" />
<glyph unicode="&#x202f;" horiz-adv-x="368" />
<glyph unicode="&#x2039;" horiz-adv-x="727" d="M129 633l225 385h244l-225 -385l225 -383h-244z" />
<glyph unicode="&#x203a;" horiz-adv-x="727" d="M129 250l225 383l-225 385h244l225 -385l-225 -383h-244z" />
<glyph unicode="&#x205f;" horiz-adv-x="460" />
<glyph unicode="&#x20ac;" horiz-adv-x="1251" d="M33 526v160h129v31v49h-129v158h145q43 253 189 395.5t370 142.5q319 0 463 -299l-235 -135q-77 160 -228 160q-215 0 -274 -264h420v-158h-441v-49v-31h441v-160h-424q58 -278 278 -278q156 0 236 170l233 -133q-138 -314 -469 -314q-225 0 -372 148t-189 407h-143z" />
<glyph unicode="&#x2122;" horiz-adv-x="968" d="M68 1319v115h350v-115h-113v-295h-125v295h-112zM459 1024v410h119l104 -158l102 158h119v-410h-119v223l-98 -149h-10l-98 149v-223h-119z" />
<glyph unicode="&#x25fc;" horiz-adv-x="1024" d="M0 0v1024h1024v-1024h-1024z" />
</font>
</defs>
</svg>
