<svg xmlns="http://www.w3.org/2000/svg" viewBox="0 0 30.75 40.75"><defs><style>.cls-1{fill:none;stroke:#babcbe;stroke-miterlimit:10;stroke-width:0.75px;}</style></defs><title>Ресурс 84</title><g id="Слой_2" data-name="Слой 2"><g id="Layer_2" data-name="Layer 2"><path class="cls-1" d="M30.29,33.25A1.75,1.75,0,0,0,29.07,31c-4.38-1.31-6.24-8.73-6.67-11.47a2.91,2.91,0,0,0-.28-.77c-.8-1.45-3.84-2.12-4.19-2.16a.75.75,0,0,1-.72-.67A5,5,0,0,0,19,12c0-2.28-.25-4.13-3.53-4.13h-.26c-3.28,0-3.53,1.85-3.53,4.13a5,5,0,0,0,1.8,4,.76.76,0,0,1-.72.67c-.37,0-3.86.82-4.33,2.51,0,0-.06.24-.09.42A27.23,27.23,0,0,1,6.9,24.91C6,27.27,4.32,30.25,1.68,31A1.75,1.75,0,0,0,.46,33.25a1.86,1.86,0,0,0,1.76,1.23,3,3,0,0,0-1.8,2.67,3.17,3.17,0,0,0,.74,1.78,4.6,4.6,0,0,0,3.75,1.45,8.74,8.74,0,0,0,1-.06c1.39-.14,2.8-.35,4.16-.56l1.48-.22a31.65,31.65,0,0,1,3.52-.19h.58a31.88,31.88,0,0,1,3.53.19l1.48.22c1.36.21,2.76.42,4.16.56a8.47,8.47,0,0,0,1,.06,4.59,4.59,0,0,0,3.74-1.45,3.21,3.21,0,0,0,.75-1.78,3,3,0,0,0-1.8-2.67h0a1.85,1.85,0,0,0,1.78-1.23ZM8.54,33a9.85,9.85,0,0,1-2,.42l-1,.14a11.49,11.49,0,0,0-1.16.17c2.43-1.27,4.38-3.69,5.84-7.23a19.77,19.77,0,0,1,.13,2.28c0,2.72-1.46,4.11-1.83,4.22Zm16.61.56-1-.14c-2.54-.3-3.79-1.92-3.79-4.64a18.9,18.9,0,0,1,.14-2.37c1.46,3.6,3.44,6.06,5.9,7.33q-.55-.1-1.23-.18Z"/><ellipse class="cls-1" cx="15.38" cy="2.87" rx="2.63" ry="2.49"/></g></g></svg>