<svg xmlns="http://www.w3.org/2000/svg" viewBox="0 0 26 41"><defs><style>.cls-1{fill:none;stroke:#babcbe;stroke-miterlimit:10;}</style></defs><title>Ресурс 85</title><g id="Слой_2" data-name="Слой 2"><g id="Layer_2" data-name="Layer 2"><path class="cls-1" d="M1.13,40.5c0-.83,0-1.63,0-2.42C1,36.52.93,35,.72,33.42a21.16,21.16,0,0,1-.12-5,15.24,15.24,0,0,1,1.77-5.78c.94-1.77,1.92-3.53,2.68-5.37a5,5,0,0,0-.42-5.12c-.29-.39-.56-.8-.85-1.2A5,5,0,0,1,3.11,6.1a7.62,7.62,0,0,1,7-5.57,8,8,0,0,1,6.2,2.19,8.93,8.93,0,0,1,2.5,5.35,6.54,6.54,0,0,1,3.62,3.23,15,15,0,0,0,1.14,1.93,5.28,5.28,0,0,1,.66,2.71c.08,1,.23,2,.34,3,0,.3,0,.6.06.9.12,1.15.26,2.3.38,3.45s.26,2.1.34,3.15.13,2.12.16,3.19a25.06,25.06,0,0,1-.95,6.82,11.9,11.9,0,0,1-.81,2c-.43.92-1.56,1.07-2.6.4-.84-.54-1.73-1-2.57-1.55s-1.63-1.08-2.48-1.65c-1.13,1.49-.46,3.18-.59,4.8ZM19.06,14.1l-.13.05c-.09.32-.14.65-.26,1-.25.68-.54,1.35-.81,2a1.34,1.34,0,0,1-1.35.89,3.57,3.57,0,0,1-1.19-.16,1.69,1.69,0,0,0-2,.49A3.92,3.92,0,0,0,12.92,23a14.89,14.89,0,0,1,1.42,2.13A12.37,12.37,0,0,0,17,28.8c.73.64,1.47,1.28,2.18,1.94a11.68,11.68,0,0,1,.84,1,8.49,8.49,0,0,0,.14-1.36c.12-1,.24-2,.45-2.95.28-1.35.74-2.67.94-4a24,24,0,0,0,0-2.94,2,2,0,0,0-.6-1.53,4.4,4.4,0,0,1-1.2-2.46C19.62,15.67,19.31,14.89,19.06,14.1Zm.73-1.24c.32.51.51.86.75,1.18a.69.69,0,0,0,.44.16c.06,0,.22-.19.2-.25a3.54,3.54,0,0,0-.46-1.07C20.63,12.76,20.22,12.86,19.79,12.86Zm-.34-1.08.72-.44-1.22-1-.16.11Z"/><path class="cls-1" d="M21,14.2a.69.69,0,0,1-.44-.16c-.24-.32-.43-.67-.75-1.18.43,0,.84-.1.93,0"/></g></g></svg>