<svg xmlns="http://www.w3.org/2000/svg" viewBox="0 0 37 40"><defs><style>.cls-1{fill:#babcbe;}</style></defs><title>Ресурс 81</title><g id="Слой_2" data-name="Слой 2"><g id="Layer_2" data-name="Layer 2"><path class="cls-1" d="M36.75,23A11,11,0,0,0,34,16.79a6.89,6.89,0,0,0-8.19-2,9.3,9.3,0,0,0-4.19,4.3c-.21.37-.39.76-.57,1.14a12.11,12.11,0,0,1-.88,1.64c-.92,1.36-1.52,1.64-2.15,1.64a2.8,2.8,0,0,1-.66-.09,8.73,8.73,0,0,1-1.65-.68l-.16-.07a8,8,0,0,0,2.49-2.6A7.25,7.25,0,0,0,18.91,14a5.74,5.74,0,0,0-5.53-4.15,13.83,13.83,0,0,0-9.27,2.71,1,1,0,0,0-.32,1.38c.36.64.69,1.28,1,1.93l1.35,2.62.53-.34L7,18a14.73,14.73,0,0,1,4.37-2.27,4.52,4.52,0,0,1,3.4.18,1.85,1.85,0,0,1,1.16,1.78,1.81,1.81,0,0,1-1.09,1.66A7.19,7.19,0,0,1,9.84,20l-1.07-.22L8,19.57l.21.65a7.84,7.84,0,0,1,.15,2.55c-.06,1.6-.13,3.25,1.36,3.84a4.46,4.46,0,0,0,2.71-.23,3.94,3.94,0,0,1,1.67-.29A3.22,3.22,0,0,1,16.64,28a3.84,3.84,0,0,1-.75,4.06A5.59,5.59,0,0,1,12.19,34a7.67,7.67,0,0,1-7.25-2.46,15.1,15.1,0,0,1-3.4-6.81c-.13-.56-.22-1.14-.31-1.7,0-.26-.09-.53-.13-.79l-.05-.3-.76-.08-.12.66c0,.24-.08.47-.11.71a18.93,18.93,0,0,0,2,10,12,12,0,0,0,6.61,6,10.06,10.06,0,0,0,3.68.7,10.33,10.33,0,0,0,3-.45,7.06,7.06,0,0,0,4.08-3c1.74-2.81,1.91-6,.5-9.78a6.73,6.73,0,0,0-.32-.73c.32,0,.62.07.93.08h.31a7.33,7.33,0,0,0,2-.24l-.38.73-.15.31a1.44,1.44,0,0,0-.09.33,10.89,10.89,0,0,0,.84,6.27,6.1,6.1,0,0,0,5.62,3.53,6.63,6.63,0,0,0,3.23-.85C35,34.44,36.69,31.56,37,27.44a20.92,20.92,0,0,0-.21-4.4Zm-.58,4.34c-.26,3.85-1.78,6.5-4.65,8.14a5.77,5.77,0,0,1-2.84.75,5.33,5.33,0,0,1-4.91-3.08,9.46,9.46,0,0,1-.86-4.71,4.46,4.46,0,0,0,3.29,2.85,6,6,0,0,0,1.41.16,7.25,7.25,0,0,0,6.74-5.1,9.61,9.61,0,0,0-.42-6.92,3.23,3.23,0,0,0-3-2,3.52,3.52,0,0,0-2.18.79,10.14,10.14,0,0,0-2.11,2.65l-.16.27a12.23,12.23,0,0,1-2.39,3.17,4.68,4.68,0,0,1-3.3,1h-.29a10,10,0,0,1-1-.1L19,25.17l-.7-.07.3.64c.08.16.15.31.23.45.14.3.28.58.39.87,1.33,3.57,1.2,6.46-.44,9.09a6.24,6.24,0,0,1-3.63,2.64,9.31,9.31,0,0,1-6.16-.23,11.24,11.24,0,0,1-6.17-5.65A18.2,18.2,0,0,1,.8,25a15.71,15.71,0,0,0,3.55,7.07,8.47,8.47,0,0,0,8,2.71A6.38,6.38,0,0,0,16.5,32.6a4.61,4.61,0,0,0,.89-4.84,4,4,0,0,0-3.18-2.45,4.47,4.47,0,0,0-2.06.32,3.87,3.87,0,0,1-2.18.25c-.91-.36-.93-1.4-.86-3.07a11.48,11.48,0,0,0,0-2.2l.62.13A8,8,0,0,0,15.17,20a2.6,2.6,0,0,0,1.5-2.36,2.64,2.64,0,0,0-1.6-2.49,5.34,5.34,0,0,0-4-.23,15.58,15.58,0,0,0-4.62,2.4l-1-1.84c-.34-.66-.68-1.31-1-2-.11-.2-.12-.21.08-.35a13,13,0,0,1,8.76-2.56,5,5,0,0,1,4.82,3.59,6.5,6.5,0,0,1-.77,5.48,7,7,0,0,1-2.55,2.53l-.22.15-.66.47.65.28.78.37a9.79,9.79,0,0,0,1.81.73c1.54.38,2.47-.11,3.66-1.88a12.59,12.59,0,0,0,.93-1.73c.18-.38.35-.75.55-1.1a8.59,8.59,0,0,1,3.82-4,6.11,6.11,0,0,1,7.29,1.77A10.28,10.28,0,0,1,36,23.15a20.67,20.67,0,0,1,.2,4.23Zm-13-1.59a4.68,4.68,0,0,0,1.49-.87,13,13,0,0,0,2.55-3.36l.16-.27a9.45,9.45,0,0,1,1.94-2.45A2.68,2.68,0,0,1,31,18.23a2.44,2.44,0,0,1,2.24,1.57,8.89,8.89,0,0,1,.38,6.36,6.44,6.44,0,0,1-6,4.54,5.75,5.75,0,0,1-1.24-.14,3.64,3.64,0,0,1-2.85-2.88c0-.23-.08-.46-.13-.71Z"/><path class="cls-1" d="M18.87,10.93a7.62,7.62,0,0,0,4.86,2.26c.33,0,.66,0,1,0a13.31,13.31,0,0,0,6.65-1.88,10.31,10.31,0,0,0,2.49-2,1,1,0,0,0,.33-.78c0-.77-.91-1.48-1.91-2.3a10.14,10.14,0,0,1-1.49-1.36l-.3-.38-.54.65-.35.44a9.28,9.28,0,0,1-2.87,2.15A6.57,6.57,0,0,1,19.23,7a6.78,6.78,0,0,1-2.45-3.39l-.47-1.52L16,3.69a6.47,6.47,0,0,0,.23,3.22,9.56,9.56,0,0,0,2.63,4Zm-.14-3.27a7.35,7.35,0,0,0,8.33.82,9.92,9.92,0,0,0,3.12-2.34c.11-.11.2-.24.31-.37a16,16,0,0,0,1.28,1.12c.71.58,1.6,1.3,1.62,1.71a.24.24,0,0,1-.1.19A9.57,9.57,0,0,1,31,10.66,12.28,12.28,0,0,1,23.8,12.4a6.82,6.82,0,0,1-4.37-2A8.78,8.78,0,0,1,17,6.69a7.63,7.63,0,0,1-.27-1.21,8.78,8.78,0,0,0,2,2.18Z"/><path class="cls-1" d="M20.39,5.13l1.77,1.64,1,1,1.07-1c.82-.8,1.62-1.58,2.41-2.37a.84.84,0,0,0,.05-1C25.84,2.41,25,1.57,24.14.81L23.29,0,23,.25,22.13,1c-.62.54-1.21,1-1.77,1.6s-.85.83-.84,1.25.31.71.87,1.24Zm.53-1.92c.54-.53,1.12-1,1.73-1.58l.63-.55.32.3c.79.75,1.64,1.55,2.48,2.37-.78.79-1.57,1.56-2.38,2.35l-.53.52-.47-.43L20.94,4.55a4.08,4.08,0,0,1-.63-.66,3.17,3.17,0,0,1,.61-.68Z"/></g></g></svg>