<svg xmlns="http://www.w3.org/2000/svg" viewBox="0 0 41.3 41.21"><defs><style>.cls-1{fill:none;stroke:#babcbe;stroke-miterlimit:10;}</style></defs><title>Ресурс 82</title><g id="Слой_2" data-name="Слой 2"><g id="Layer_2" data-name="Layer 2"><path class="cls-1" d="M25.15,40.71c-.47-.5-.95-1-1.4-1.51a13.51,13.51,0,0,1-1.16-1.46c-1.13-1.77-2.22-3.56-3.33-5.34-.13-.21-.27-.4-.43-.64L7.41,37.5,5.2,35.29a10.1,10.1,0,0,1,1.3-1c2.12-1.1,4.27-2.15,6.55-3.3l-.74-.3a10.31,10.31,0,0,1-5.56-4.76c-2-3.91-.07-7.81,4.36-8.51a31.34,31.34,0,0,1,4-.19c1,0,2.08,0,3.17,0V13.41H3.48A1.35,1.35,0,0,1,2.41,13c-.56-.58-1.17-1.11-1.76-1.65a2,2,0,0,1,1.8-1q17.63,0,35.27,0a1.52,1.52,0,0,1,1.25.5c.53.57,1.13,1.08,1.68,1.61a1.86,1.86,0,0,1-1.84.95c-1.62-.07-3.25,0-5,0v.84c0,7.19,0,14.38,0,21.58a1.88,1.88,0,0,1-1,1.78c-.66-.64-1.35-1.27-2-2a1.33,1.33,0,0,1-.17-.81q0-10.29,0-20.58v-.81H21.41v5.21a1.43,1.43,0,0,1-1.61,1.58c-2.15,0-4.31,0-6.46.09a6.21,6.21,0,0,0-1.79.37,3.61,3.61,0,0,0-1.07,6.36,8.17,8.17,0,0,0,4.63,1.51c.54,0,1.09,0,1.75,0-.19-.4-.36-.72-.51-1a2.46,2.46,0,0,1,.37-3.07A2.75,2.75,0,0,1,20,24a5.26,5.26,0,0,1,2.84,3.25,2.19,2.19,0,0,1-.56,2.34A20.72,20.72,0,0,1,20.67,31l5.49,8.86-.88.9ZM20,26.71c-.93.19-1,.42-.72,1.18Z"/><path class="cls-1" d="M34.81,3.24,32.28,5.8,29.76,3.23,32.25.71Z"/><path class="cls-1" d="M20,26.71l-.72,1.18C18.94,27.13,19.06,26.9,20,26.71Z"/></g></g></svg>