<svg xmlns="http://www.w3.org/2000/svg" viewBox="0 0 35.75 40.75"><defs><style>.cls-1{fill:none;stroke:#babcbe;stroke-miterlimit:10;stroke-width:0.75px;}</style></defs><title>Ресурс 83</title><g id="Слой_2" data-name="Слой 2"><g id="Layer_2" data-name="Layer 2"><path class="cls-1" d="M15.45.39a1,1,0,0,0-1.07.54L7.88,15.39c-2,4.21-.15,9.24.64,11L.72,32.55a.87.87,0,0,0-.34.62.9.9,0,0,0,.23.68l5.76,6.22a1,1,0,0,0,.72.31h0A.93.93,0,0,0,7.86,40L16,29.12a.87.87,0,0,0,.17-.52V27.3c0-5.52,0-25,0-26a.93.93,0,0,0-.77-.89Z"/><path class="cls-1" d="M35.37,33.17a.87.87,0,0,0-.34-.62l-7.8-6.14c.79-1.78,2.64-6.81.64-11L21.37.93A1,1,0,0,0,20.3.39a.93.93,0,0,0-.77.89c0,1,0,20.5,0,26v1.3a.87.87,0,0,0,.17.52L27.88,40a1,1,0,0,0,.74.38h0a1,1,0,0,0,.72-.31l5.76-6.22a.9.9,0,0,0,.23-.68Z"/></g></g></svg>