<svg xmlns="http://www.w3.org/2000/svg" xmlns:xlink="http://www.w3.org/1999/xlink" viewBox="0 0 20 15"><defs><style>.cls-1{fill:url(#linear-gradient);}</style><linearGradient id="linear-gradient" y1="7.5" x2="20" y2="7.5" gradientUnits="userSpaceOnUse"><stop offset="0" stop-color="#50c8c2"/><stop offset="0.98" stop-color="#95ddd9"/></linearGradient></defs><title>Ресурс 78</title><g id="Слой_2" data-name="Слой 2"><g id="Layer_2" data-name="Layer 2"><path class="cls-1" d="M20,12.5a2.44,2.44,0,0,1-.32,1.2L13.36,6.64l6.25-5.47A2.53,2.53,0,0,1,20,2.5ZM10,7.92,18.69.31A2.51,2.51,0,0,0,17.5,0H2.5A2.51,2.51,0,0,0,1.31.31Zm2.42-.46-2,1.76a.61.61,0,0,1-.82,0l-2-1.76-6.4,7.16A2.46,2.46,0,0,0,2.5,15h15a2.46,2.46,0,0,0,1.32-.38ZM.39,1.17A2.53,2.53,0,0,0,0,2.5v10a2.44,2.44,0,0,0,.32,1.2L6.64,6.64Z"/></g></g></svg>