<svg xmlns="http://www.w3.org/2000/svg" xmlns:xlink="http://www.w3.org/1999/xlink" viewBox="0 0 22 20"><defs><style>.cls-1{fill:url(#linear-gradient);}.cls-2{fill:url(#linear-gradient-2);}</style><linearGradient id="linear-gradient" x1="6.07" y1="5.3" x2="15.93" y2="5.3" gradientUnits="userSpaceOnUse"><stop offset="0" stop-color="#50c8c2"/><stop offset="0.98" stop-color="#95ddd9"/></linearGradient><linearGradient id="linear-gradient-2" x1="0" y1="15.41" x2="22" y2="15.41" xlink:href="#linear-gradient"/></defs><title>Ресурс 75</title><g id="Слой_2" data-name="Слой 2"><g id="Layer_2" data-name="Layer 2"><path class="cls-1" d="M11,10.6a5.13,5.13,0,0,0,4.93-5.3C15.93,1.24,13.72,0,11,0S6.07,1.24,6.07,5.3A5.13,5.13,0,0,0,11,10.6Z"/><path class="cls-2" d="M21.89,18.39,19.4,13.25a1.15,1.15,0,0,0-.56-.55L15,10.86a.26.26,0,0,0-.27,0,6.51,6.51,0,0,1-7.42,0,.26.26,0,0,0-.27,0L3.16,12.7a1.15,1.15,0,0,0-.56.55L.11,18.39A1.07,1.07,0,0,0,.2,19.48a1.26,1.26,0,0,0,1,.52H20.76a1.26,1.26,0,0,0,1-.52,1.07,1.07,0,0,0,.09-1.09Z"/></g></g></svg>