<svg xmlns="http://www.w3.org/2000/svg" xmlns:xlink="http://www.w3.org/1999/xlink" viewBox="0 0 16 20"><defs><style>.cls-1{fill:url(#linear-gradient);}</style><linearGradient id="linear-gradient" y1="10" x2="16" y2="10" gradientUnits="userSpaceOnUse"><stop offset="0" stop-color="#50c8c2"/><stop offset="0.98" stop-color="#95ddd9"/></linearGradient></defs><title>Ресурс 80</title><g id="Слой_2" data-name="Слой 2"><g id="Layer_2" data-name="Layer 2"><path class="cls-1" d="M15.56,7.5H14.22V5.83A6,6,0,0,0,8,0,6,6,0,0,0,1.78,5.83V7.5H.44A.43.43,0,0,0,0,7.92V18.33A1.73,1.73,0,0,0,1.78,20H14.22A1.73,1.73,0,0,0,16,18.33V7.92A.43.43,0,0,0,15.56,7.5ZM9.05,13.84l.28,2.36a.44.44,0,0,1-.11.33.44.44,0,0,1-.33.14H7.11a.44.44,0,0,1-.33-.14.44.44,0,0,1-.11-.33L7,13.84a1.61,1.61,0,0,1-.73-1.34A1.73,1.73,0,0,1,8,10.83,1.73,1.73,0,0,1,9.78,12.5,1.61,1.61,0,0,1,9.05,13.84ZM11.56,7.5H4.44V5.83A3.46,3.46,0,0,1,8,2.5a3.46,3.46,0,0,1,3.56,3.33Z"/></g></g></svg>