<svg xmlns="http://www.w3.org/2000/svg" xmlns:xlink="http://www.w3.org/1999/xlink" viewBox="0 0 21.05 20"><defs><style>.cls-1{fill:url(#linear-gradient);}</style><linearGradient id="linear-gradient" y1="10" x2="21.05" y2="10" gradientUnits="userSpaceOnUse"><stop offset="0" stop-color="#50c8c2"/><stop offset="0.98" stop-color="#95ddd9"/></linearGradient></defs><title>Ресурс 77</title><g id="Слой_2" data-name="Слой 2"><g id="Layer_2" data-name="Layer 2"><path class="cls-1" d="M20.13,6.82l-5.79-.55a1,1,0,0,1-.83-.61l-2.08-5a1,1,0,0,0-1.84,0l-2.06,5a1,1,0,0,1-.83.61L.9,6.82A1,1,0,0,0,.33,8.56L4.7,12.4a1,1,0,0,1,.32,1L3.71,18.76a1,1,0,0,0,1.48,1.1L10,17a1,1,0,0,1,1,0l4.84,2.84a1,1,0,0,0,1.47-1.1l-1.29-5.38a1,1,0,0,1,.31-1l4.37-3.84a1,1,0,0,0-.6-1.74Z"/></g></g></svg>