<svg xmlns="http://www.w3.org/2000/svg" xmlns:xlink="http://www.w3.org/1999/xlink" viewBox="0 0 20 20"><defs><style>.cls-1{fill:url(#linear-gradient);}</style><linearGradient id="linear-gradient" y1="10" x2="20" y2="10" gradientUnits="userSpaceOnUse"><stop offset="0" stop-color="#50c8c2"/><stop offset="0.98" stop-color="#95ddd9"/></linearGradient></defs><title>Ресурс 79</title><g id="Слой_2" data-name="Слой 2"><g id="Layer_2" data-name="Layer 2"><path class="cls-1" d="M20,15.78a1,1,0,0,1-.3.85l-2.81,2.8a1.61,1.61,0,0,1-.5.36,2.08,2.08,0,0,1-.6.19h-.41a10.32,10.32,0,0,1-1.3-.14,9.83,9.83,0,0,1-2.2-.68,18.34,18.34,0,0,1-2.95-1.62,22.29,22.29,0,0,1-3.52-3A23.42,23.42,0,0,1,3,11.8,20.16,20.16,0,0,1,1.38,9.33a13,13,0,0,1-.89-2,10.82,10.82,0,0,1-.4-1.59A5.8,5.8,0,0,1,0,4.64c0-.25,0-.4,0-.42a2.18,2.18,0,0,1,.2-.61,1.43,1.43,0,0,1,.36-.5L3.39.3A.93.93,0,0,1,4.07,0a.8.8,0,0,1,.49.16,1.49,1.49,0,0,1,.36.39l2.26,4.3a1,1,0,0,1,.11.74,1.36,1.36,0,0,1-.36.68l-1,1a.3.3,0,0,0-.07.14.34.34,0,0,0,0,.16,4.3,4.3,0,0,0,.38,1A10,10,0,0,0,7,9.86a13.52,13.52,0,0,0,1.5,1.69,13.81,13.81,0,0,0,1.7,1.51,9.83,9.83,0,0,0,1.23.8,3.06,3.06,0,0,0,.77.3l.26.06a.38.38,0,0,0,.14,0,.37.37,0,0,0,.14-.07l1.2-1.23a1.34,1.34,0,0,1,.89-.34,1,1,0,0,1,.57.13h0l4.09,2.41a1.09,1.09,0,0,1,.53.7Z"/></g></g></svg>