<svg id="on-time" xmlns="http://www.w3.org/2000/svg" viewBox="0 0 28 28"><defs><style>.cls-1{fill:#babcbe;}</style></defs><title>Ресурс 103</title><g id="Слой_2" data-name="Слой 2"><g id="Layer_2" data-name="Layer 2"><path class="cls-1" d="M14,12.53A1.47,1.47,0,1,0,15,13a1.46,1.46,0,0,0-1-.43Z"/><path class="cls-1" d="M23.9,4.1a13.86,13.86,0,0,0-3.56-2.59.57.57,0,0,0-.77.26.56.56,0,0,0,.26.76A12.61,12.61,0,0,1,23.1,4.91,12.87,12.87,0,1,1,14,1.14a.58.58,0,0,0,.57-.57A.58.58,0,0,0,14,0a14,14,0,1,0,9.9,4.1Z"/></g></g></svg>