<?xml version="1.0" encoding="utf-8"?>
<!-- Generator: Adobe Illustrator 19.2.1, SVG Export Plug-In . SVG Version: 6.00 Build 0)  -->
<svg version="1.1" id="Слой_1" xmlns="http://www.w3.org/2000/svg" xmlns:xlink="http://www.w3.org/1999/xlink" x="0px" y="0px"
	 viewBox="0 0 26.7 26.7" style="enable-background:new 0 0 26.7 26.7;" xml:space="preserve">
<style type="text/css">
	.st0{fill:#FFFFFF;}
</style>
<title>дхарма вичара</title>
<g>
	<path class="st0" d="M21,2.8v3.8h0.8c0.4,0,0.6-0.3,0.6-0.6V4.7C22.5,3.8,21.9,3,21,2.8z"/>
	<path class="st0" d="M7.9,2.8c-1.1,0-2,0.9-2,2v16.1h11.1c0.4,0,0.6,0.3,0.6,0.6v1.2c0,0.4,0.3,0.7,0.7,0.7h0h2l0-20.7L7.9,2.8
		L7.9,2.8z M16.9,18h-8c-0.4,0-0.6-0.3-0.6-0.6s0.3-0.6,0.6-0.6h8c0.4,0,0.6,0.3,0.6,0.6S17.2,18,16.9,18z M16.9,14.8h-8
		c-0.4,0-0.6-0.3-0.6-0.6s0.3-0.6,0.6-0.6h8c0.4,0,0.6,0.3,0.6,0.6S17.2,14.8,16.9,14.8z M16.9,11.5h-8c-0.4,0-0.6-0.3-0.6-0.6
		s0.3-0.6,0.6-0.6h8c0.4,0,0.6,0.3,0.6,0.6S17.2,11.5,16.9,11.5z M16.9,8.3h-8C8.6,8.3,8.3,8,8.3,7.6S8.6,7,8.9,7h8
		c0.4,0,0.6,0.3,0.6,0.6S17.2,8.3,16.9,8.3z"/>
	<path class="st0" d="M16.2,22.8v-0.6H3.6c-0.3,0-0.6,0.3-0.6,0.6c0,1.1,0.9,2,2,2c0,0,0,0,0,0h1.1h12.1
		C17.1,24.8,16.2,23.9,16.2,22.8z"/>
</g>
</svg>
