<?xml version="1.0" encoding="utf-8"?>
<!-- Generator: Adobe Illustrator 19.2.1, SVG Export Plug-In . SVG Version: 6.00 Build 0)  -->
<svg version="1.1" id="Слой_1" xmlns="http://www.w3.org/2000/svg" xmlns:xlink="http://www.w3.org/1999/xlink" x="0px" y="0px"
	 viewBox="0 0 24.1 19.8" style="enable-background:new 0 0 24.1 19.8;" xml:space="preserve">
<style type="text/css">
	.st0{fill:#FFFFFF;}
</style>
<title>каталог</title>
<g>
	<path class="st0" d="M4,1L4,1C3.8,1,3.6,1.1,3.4,1.3C3.2,1.4,3.2,1.6,3.2,1.8v12.5c0,0.5,0.4,0.8,0.8,0.8c1.9,0,5.2,0.4,7.4,2.8
		V4.8c0-0.2,0-0.3-0.1-0.4C9.5,1.5,5.9,1,4,1L4,1z M4,1"/>
	<path class="st0" d="M21,14.3V1.8c0-0.2-0.1-0.4-0.2-0.6C20.6,1.1,20.3,1,20.1,1h0c-1.9,0-5.5,0.5-7.3,3.4
		c-0.1,0.1-0.1,0.3-0.1,0.4v13.1c2.2-2.3,5.5-2.7,7.4-2.8C20.6,15.2,21,14.8,21,14.3L21,14.3z M21,14.3"/>
	<path class="st0" d="M22.8,3.9h-0.6v10.4c0,1.2-1,2.1-2.1,2.1c-1.6,0-4.4,0.3-6.3,2.1c3.3-0.8,6.8-0.3,8.8,0.2
		c0.2,0.1,0.5,0,0.7-0.2c0.2-0.2,0.3-0.4,0.3-0.6V4.7C23.7,4.3,23.3,3.9,22.8,3.9L22.8,3.9z M22.8,3.9"/>
	<path class="st0" d="M1.9,14.3V3.9H1.3c-0.5,0-0.8,0.4-0.8,0.8v13.2c0,0.3,0.1,0.5,0.3,0.6c0.2,0.2,0.5,0.2,0.7,0.2
		c2-0.5,5.5-1,8.8-0.2c-1.9-1.8-4.6-2.1-6.3-2.1C2.8,16.4,1.9,15.5,1.9,14.3L1.9,14.3z M1.9,14.3"/>
</g>
</svg>
