<?xml version="1.0" encoding="utf-8"?>
<!-- Generator: Adobe Illustrator 19.2.1, SVG Export Plug-In . SVG Version: 6.00 Build 0)  -->
<svg version="1.1" id="Слой_1" xmlns="http://www.w3.org/2000/svg" xmlns:xlink="http://www.w3.org/1999/xlink" x="0px" y="0px"
	 viewBox="0 0 25.2 28" style="enable-background:new 0 0 25.2 28;" xml:space="preserve">
<style type="text/css">
	.st0{fill:#FFFFFF;}
</style>
<title>к комплксам 1</title>
<g>
	<g>
		<path class="st0" d="M23.1,20.9c0.2-0.7-0.2-1.4-0.8-1.6c-2.9-0.9-4.2-6.1-4.4-8.1c0-0.3-0.2-0.5-0.2-0.5c-0.5-1-2.6-1.5-2.8-1.5
			c-0.4,0-0.5-0.4-0.5-0.5C15.1,8.2,15.6,7,15.6,6c0-1.6-0.2-2.9-2.4-2.9H13c-2.2,0-2.4,1.3-2.4,2.9c0,1.1,0.5,2.3,1.2,2.8
			c0,0.1-0.1,0.4-0.5,0.5c-0.2,0-2.6,0.6-2.9,1.8c0,0,0,0.2-0.1,0.3c0,0-0.2,1.8-1,3.8c-0.6,1.7-1.7,3.8-3.5,4.3
			c-0.7,0.2-1,0.9-0.8,1.6c0.2,0.5,0.6,0.9,1.2,0.9c-1,0.6-1.2,1.4-1.2,1.9c0,0.2,0.1,0.7,0.5,1.3c0.4,0.5,1.1,1,2.5,1
			c0.2,0,0.4,0,0.7,0c0.9-0.1,1.9-0.3,2.8-0.4c0.3-0.1,0.7-0.1,1-0.2c0.4-0.1,1.2-0.1,2.4-0.1h0.4c1.1,0,1.9,0.1,2.4,0.1
			c0.3,0.1,0.7,0.1,1,0.2c0.9,0.1,1.8,0.3,2.8,0.4c0.2,0,0.4,0,0.7,0c1.4,0,2.1-0.6,2.5-1c0.4-0.5,0.5-1.1,0.5-1.3
			c0-0.4-0.2-1.3-1.2-1.9c0,0,0,0,0,0C22.4,21.8,22.9,21.4,23.1,20.9L23.1,20.9z M8.6,20.7C8,20.9,7.8,21,7.3,21
			c-0.2,0-0.4,0.1-0.7,0.1c-0.3,0-0.5,0.1-0.8,0.1c1.6-0.9,2.9-2.6,3.9-5.1c0.1,0.5,0.1,1,0.1,1.6C9.8,19.7,8.8,20.7,8.6,20.7
			L8.6,20.7z M19.7,21.1c-0.3,0-0.5-0.1-0.7-0.1c-1.7-0.2-2.5-1.3-2.5-3.3c0-0.6,0-1.2,0.1-1.7c1,2.5,2.3,4.3,3.9,5.2
			C20.2,21.2,20,21.2,19.7,21.1L19.7,21.1z M19.7,21.1"/>
	</g>
</g>
</svg>
