<?xml version="1.0" encoding="utf-8"?>
<!-- Generator: Adobe Illustrator 19.2.1, SVG Export Plug-In . SVG Version: 6.00 Build 0)  -->
<svg version="1.1" id="Слой_1" xmlns="http://www.w3.org/2000/svg" xmlns:xlink="http://www.w3.org/1999/xlink" x="0px" y="0px"
	 viewBox="0 0 19.4 21.2" style="enable-background:new 0 0 19.4 21.2;" xml:space="preserve">
<style type="text/css">
	.st0{fill:#FFFFFF;}
</style>
<title>личный кабинет 1</title>
<g>
	<g>
		<path class="st0" d="M9.7,11c2.3,0,4.1-2.2,4.1-4.8c0-3.7-1.8-4.8-4.1-4.8c-2.3,0-4.1,1.1-4.1,4.8C5.6,8.9,7.4,11,9.7,11L9.7,11z
			 M9.7,11"/>
		<path class="st0" d="M18.8,19.2l-2.1-4.7c-0.1-0.2-0.3-0.4-0.5-0.5L13,12.4c-0.1,0-0.2,0-0.2,0c-0.9,0.7-2,1.1-3.1,1.1
			c-1.1,0-2.2-0.4-3.1-1.1c-0.1,0-0.1-0.1-0.2,0l-3.2,1.7c-0.2,0.1-0.4,0.3-0.5,0.5l-2.1,4.7c-0.1,0.3-0.1,0.7,0.1,1
			c0.2,0.3,0.5,0.5,0.9,0.5h16.2c0.4,0,0.7-0.2,0.9-0.5C18.9,19.9,18.9,19.5,18.8,19.2L18.8,19.2z M18.8,19.2"/>
	</g>
</g>
</svg>
