<?xml version="1.0" encoding="utf-8"?>
<!-- Generator: Adobe Illustrator 19.2.1, SVG Export Plug-In . SVG Version: 6.00 Build 0)  -->
<svg version="1.1" id="Слой_1" xmlns="http://www.w3.org/2000/svg" xmlns:xlink="http://www.w3.org/1999/xlink" x="0px" y="0px"
	 viewBox="0 0 23.2 23.9" style="enable-background:new 0 0 23.2 23.9;" xml:space="preserve">
<style type="text/css">
	.st0{fill:#FFFFFF;}
</style>
<title>пользовательнское соглашение</title>
<g>
	<g>
		<path class="st0" d="M19.2,15.8c3.2-3.2,3.2-8.3,0-11.5c-3.2-3.2-8.3-3.2-11.5,0C5.1,7,4.7,11,6.5,14.1c0,0,0.1,0.2,0,0.4
			l-4.1,4.1c-0.8,0.8-1,2-0.3,2.7l0.1,0.1c0.7,0.7,1.9,0.5,2.7-0.3L9,17.1C9.2,16.9,9.4,17,9.4,17C12.6,18.9,16.5,18.5,19.2,15.8
			L19.2,15.8z M9.2,14.3c-2.3-2.3-2.3-6.1,0-8.5c2.3-2.3,6.1-2.3,8.5,0c2.3,2.3,2.3,6.1,0,8.5C15.4,16.6,11.6,16.6,9.2,14.3
			L9.2,14.3z M9.2,14.3"/>
	</g>
	<path class="st0" d="M9.8,9.6c-0.1,0-0.2,0-0.3-0.1C9,9.3,8.8,8.8,9,8.4c1.1-2.7,4.2-3.9,6.9-2.8c0.4,0.2,0.6,0.7,0.4,1.1
		c-0.2,0.4-0.7,0.6-1.1,0.4c-1.8-0.8-3.9,0.1-4.7,1.9C10.4,9.4,10.1,9.6,9.8,9.6L9.8,9.6z M9.8,9.6"/>
</g>
</svg>
