<?xml version="1.0" encoding="utf-8"?>
<!-- Generator: Adobe Illustrator 19.2.1, SVG Export Plug-In . SVG Version: 6.00 Build 0)  -->
<svg version="1.1" id="Слой_1" xmlns="http://www.w3.org/2000/svg" xmlns:xlink="http://www.w3.org/1999/xlink" x="0px" y="0px"
	 viewBox="0 0 25.9 24.5" style="enable-background:new 0 0 25.9 24.5;" xml:space="preserve">
<style type="text/css">
	.st0{fill:#FFFFFF;}
</style>
<title>выйти</title>
<g>
	<path class="st0" d="M23.7,11.7c0.1-0.2,0.1-0.5,0-0.7c0-0.1-0.1-0.2-0.2-0.3L20.8,8c-0.3-0.3-0.9-0.3-1.3,0
		c-0.3,0.3-0.3,0.9,0,1.3l1.2,1.2h-5c-0.5,0-0.9,0.4-0.9,0.9s0.4,0.9,0.9,0.9h5l-1.2,1.2c-0.3,0.3-0.3,0.9,0,1.3
		c0.2,0.2,0.4,0.3,0.6,0.3s0.5-0.1,0.6-0.3l2.7-2.7C23.6,11.9,23.6,11.8,23.7,11.7"/>
	<path class="st0" d="M17.5,14c-0.5,0-0.9,0.4-0.9,0.9v4.4h-3.6V5.1c0-0.4-0.3-0.7-0.6-0.9L9.3,3.3h7.3v4.4c0,0.5,0.4,0.9,0.9,0.9
		c0.5,0,0.9-0.4,0.9-0.9V2.4c0-0.5-0.4-0.9-0.9-0.9H3.3c0,0-0.1,0-0.1,0c0,0-0.1,0-0.1,0C3,1.6,2.9,1.6,2.8,1.7c0,0,0,0-0.1,0
		c0,0,0,0,0,0C2.6,1.8,2.5,1.9,2.5,2c0,0,0,0,0,0.1c0,0.1-0.1,0.1-0.1,0.2c0,0,0,0.1,0,0.1c0,0,0,0,0,0.1v17.8
		c0,0.4,0.3,0.8,0.7,0.9l8.9,1.8c0.1,0,0.1,0,0.2,0c0.2,0,0.4-0.1,0.6-0.2c0.2-0.2,0.3-0.4,0.3-0.7v-0.9h4.4c0.5,0,0.9-0.4,0.9-0.9
		v-5.3C18.4,14.4,18,14,17.5,14"/>
</g>
</svg>
