<?xml version="1.0" encoding="UTF-8"?>
<svg xmlns="http://www.w3.org/2000/svg" xmlns:xlink="http://www.w3.org/1999/xlink" viewBox="0 0 100 100" width="100px" height="100px">
<g id="surface204237074">
<path style=" stroke:none;fill-rule:nonzero;fill:rgb(0%,58.823532%,53.333336%);fill-opacity:1;" d="M 51.074219 7.960938 C 28.742188 7.960938 10.574219 26.128906 10.574219 48.460938 C 10.574219 70.792969 28.742188 88.960938 51.074219 88.960938 C 73.40625 88.960938 91.574219 70.792969 91.574219 48.460938 C 91.574219 26.128906 73.40625 7.960938 51.074219 7.960938 Z M 51.074219 9.960938 C 72.300781 9.960938 89.574219 27.230469 89.574219 48.460938 C 89.574219 69.691406 72.304688 86.960938 51.074219 86.960938 C 29.84375 86.960938 12.574219 69.691406 12.574219 48.460938 C 12.574219 27.230469 29.84375 9.960938 51.074219 9.960938 Z M 50.046875 13.546875 C 47.78125 13.589844 45.503906 13.863281 43.242188 14.363281 C 34.304688 16.339844 26.6875 21.679688 21.796875 29.402344 C 11.636719 45.429688 16.46875 66.871094 32.566406 77.199219 C 38.246094 80.84375 44.691406 82.726562 51.246094 82.726562 C 53.742188 82.726562 56.253906 82.453125 58.742188 81.902344 C 67.679688 79.925781 75.300781 74.585938 80.191406 66.863281 C 84.25 60.460938 86.050781 53.074219 85.394531 45.5 C 85.375 45.222656 85.125 45.015625 84.855469 45.046875 C 84.582031 45.066406 84.378906 45.3125 84.398438 45.585938 C 84.441406 46.046875 84.46875 46.503906 84.488281 46.960938 L 79.800781 46.960938 C 79.527344 46.960938 79.300781 47.183594 79.300781 47.460938 C 79.300781 47.738281 79.527344 47.960938 79.800781 47.960938 L 84.515625 47.960938 C 84.628906 54.476562 82.863281 60.785156 79.347656 66.328125 C 78.167969 68.191406 76.820312 69.914062 75.332031 71.476562 L 72.683594 68.800781 C 72.488281 68.605469 72.171875 68.601562 71.976562 68.796875 C 71.78125 68.992188 71.777344 69.308594 71.972656 69.503906 L 74.628906 72.183594 C 70.238281 76.523438 64.714844 79.558594 58.527344 80.929688 C 56.019531 81.480469 53.492188 81.734375 50.980469 81.714844 C 50.988281 81.6875 51 81.664062 51 81.632812 L 51 77.632812 C 51 77.355469 50.777344 77.132812 50.5 77.132812 C 50.222656 77.132812 50 77.355469 50 77.632812 L 50 81.632812 C 50 81.65625 50.011719 81.675781 50.011719 81.699219 C 44.074219 81.476562 38.265625 79.671875 33.105469 76.359375 C 31.082031 75.058594 29.242188 73.578125 27.589844 71.953125 L 30.140625 69.378906 C 30.335938 69.183594 30.335938 68.867188 30.136719 68.671875 C 29.945312 68.476562 29.625 68.476562 29.429688 68.675781 L 26.890625 71.234375 C 20.8125 64.875 17.535156 56.472656 17.484375 47.945312 C 17.515625 47.949219 17.542969 47.960938 17.574219 47.960938 L 20.511719 47.960938 C 20.789062 47.960938 21.011719 47.738281 21.011719 47.460938 C 21.011719 47.183594 20.789062 46.960938 20.511719 46.960938 L 17.574219 46.960938 C 17.542969 46.960938 17.519531 46.972656 17.488281 46.980469 C 17.625 41.109375 19.289062 35.222656 22.636719 29.9375 C 23.960938 27.851562 25.496094 25.953125 27.195312 24.246094 L 29.558594 26.628906 C 29.65625 26.726562 29.785156 26.777344 29.914062 26.777344 C 30.042969 26.777344 30.167969 26.726562 30.265625 26.632812 C 30.460938 26.4375 30.464844 26.121094 30.269531 25.925781 L 27.910156 23.542969 C 32.207031 19.488281 37.53125 16.652344 43.457031 15.339844 C 45.636719 14.855469 47.832031 14.597656 50.015625 14.546875 C 50.011719 14.578125 50 14.601562 50 14.632812 L 50 17.632812 C 50 17.910156 50.222656 18.132812 50.5 18.132812 C 50.777344 18.132812 51 17.910156 51 17.632812 L 51 14.632812 C 51 14.605469 50.988281 14.578125 50.984375 14.550781 C 57.265625 14.597656 63.4375 16.414062 68.882812 19.90625 C 70.699219 21.074219 72.378906 22.414062 73.929688 23.882812 L 71.304688 26.527344 C 71.113281 26.726562 71.113281 27.042969 71.308594 27.234375 C 71.40625 27.332031 71.535156 27.378906 71.660156 27.378906 C 71.792969 27.378906 71.917969 27.332031 72.015625 27.230469 L 74.652344 24.574219 C 77.363281 27.304688 79.605469 30.472656 81.261719 33.976562 C 81.382812 34.226562 81.679688 34.335938 81.925781 34.214844 C 82.175781 34.097656 82.285156 33.800781 82.164062 33.550781 C 79.367188 27.628906 74.960938 22.617188 69.421875 19.0625 C 63.539062 15.289062 56.839844 13.40625 50.042969 13.542969 Z M 50.574219 20.960938 C 50.019531 20.960938 49.574219 21.410156 49.574219 21.960938 L 49.574219 44.011719 C 49.574219 44.171875 49.621094 44.320312 49.691406 44.453125 C 48.4375 45.132812 47.574219 46.441406 47.574219 47.960938 C 47.574219 48.421875 47.667969 48.863281 47.816406 49.273438 L 34.566406 62.605469 C 33.105469 64.074219 33.636719 64.921875 33.929688 65.21875 C 34.15625 65.445312 34.441406 65.5625 34.757812 65.5625 C 35.425781 65.5625 36.09375 65.03125 36.539062 64.582031 L 49.617188 51.425781 C 50.199219 51.757812 50.859375 51.960938 51.574219 51.960938 C 53.441406 51.960938 55.003906 50.667969 55.441406 48.933594 C 55.488281 48.941406 55.527344 48.960938 55.574219 48.960938 L 69.574219 48.960938 C 70.128906 48.960938 70.574219 48.511719 70.574219 47.960938 C 70.574219 47.410156 70.128906 46.960938 69.574219 46.960938 L 55.574219 46.960938 C 55.527344 46.960938 55.488281 46.980469 55.441406 46.988281 C 55.351562 46.628906 55.207031 46.296875 55.027344 45.984375 L 57.242188 43.753906 C 58.269531 43.929688 59.859375 43.769531 60.648438 42.972656 L 62.546875 41.0625 C 63.789062 39.8125 63.789062 37.78125 62.546875 36.535156 C 61.347656 35.328125 59.238281 35.328125 58.039062 36.535156 L 56.140625 38.445312 C 55.382812 39.210938 55.097656 40.703125 55.269531 41.773438 L 52.863281 44.191406 C 52.457031 44.054688 52.027344 43.960938 51.574219 43.960938 L 51.574219 21.960938 C 51.574219 21.410156 51.128906 20.960938 50.574219 20.960938 Z M 60.292969 36.601562 C 60.878906 36.601562 61.425781 36.828125 61.839844 37.238281 C 62.691406 38.097656 62.691406 39.5 61.839844 40.355469 L 59.941406 42.265625 C 59.425781 42.785156 58.023438 42.941406 57.207031 42.726562 C 57.03125 42.679688 56.851562 42.730469 56.726562 42.855469 L 54.429688 45.167969 C 54.242188 44.976562 54.039062 44.804688 53.820312 44.652344 L 56.167969 42.289062 C 56.292969 42.164062 56.34375 41.980469 56.296875 41.808594 C 56.101562 41.054688 56.304688 39.699219 56.851562 39.148438 L 58.746094 37.238281 C 59.160156 36.828125 59.707031 36.597656 60.292969 36.597656 Z M 83.78125 39.515625 C 83.71875 39.507812 83.648438 39.507812 83.578125 39.523438 C 83.3125 39.589844 83.148438 39.863281 83.214844 40.128906 C 83.40625 40.914062 83.570312 41.71875 83.707031 42.515625 C 83.75 42.761719 83.960938 42.933594 84.199219 42.933594 C 84.226562 42.933594 84.253906 42.933594 84.28125 42.925781 C 84.554688 42.878906 84.738281 42.621094 84.691406 42.351562 C 84.554688 41.527344 84.382812 40.699219 84.183594 39.894531 C 84.136719 39.691406 83.972656 39.546875 83.78125 39.519531 Z M 51.574219 44.960938 C 53.226562 44.960938 54.574219 46.308594 54.574219 47.960938 C 54.574219 49.613281 53.226562 50.960938 51.574219 50.960938 C 49.921875 50.960938 48.574219 49.613281 48.574219 47.960938 C 48.574219 46.308594 49.921875 44.960938 51.574219 44.960938 Z M 48.285156 50.222656 C 48.433594 50.441406 48.609375 50.648438 48.800781 50.832031 L 35.832031 63.878906 C 35.328125 64.386719 34.9375 64.5625 34.757812 64.5625 C 34.707031 64.5625 34.675781 64.554688 34.640625 64.515625 C 34.480469 64.355469 34.753906 63.835938 35.273438 63.308594 Z M 48.285156 50.222656 "/>
</g>
</svg>
